<svg version="1.1" id="Layer_1" xmlns="http://www.w3.org/2000/svg" xmlns:xlink="http://www.w3.org/1999/xlink" x="0" y="0" viewBox="0 0 24 24" xml:space="preserve" enable-background="new 0 0 24 24"><path d="M12,23C5.9,23,1,18.1,1,12C1,5.9,5.9,1,12,1s11,4.9,11,11C23,18.1,18.1,23,12,23z M12,3c-5,0-9,4-9,9s4,9,9,9c5,0,9-4,9-9	S17,3,12,3z"/><path d="M15,16c-0.3,0-0.5-0.1-0.7-0.3l-3-3C11.1,12.5,11,12.3,11,12V6c0-0.6,0.4-1,1-1s1,0.4,1,1v5.6l2.7,2.7c0.4,0.4,0.4,1,0,1.4	C15.5,15.9,15.3,16,15,16z"/></svg>