<svg version="1.1" id="Layer_1" xmlns="http://www.w3.org/2000/svg" xmlns:xlink="http://www.w3.org/1999/xlink" x="0" y="0" viewBox="0 0 24 24" xml:space="preserve" enable-background="new 0 0 24 24"><path d="M12,23c-0.2,0-0.3,0-0.4-0.1l-10-5c-0.5-0.2-0.7-0.8-0.4-1.3s0.8-0.7,1.3-0.4l9.6,4.8l9.6-4.8c0.5-0.2,1.1,0,1.3,0.4	c0.2,0.5,0,1.1-0.4,1.3l-10,5C12.3,23,12.2,23,12,23z M12,18c-0.2,0-0.3,0-0.4-0.1l-10-5c-0.5-0.2-0.7-0.8-0.4-1.3	c0.2-0.5,0.8-0.7,1.3-0.4l9.6,4.8l9.6-4.8c0.5-0.2,1.1,0,1.3,0.4c0.2,0.5,0,1.1-0.4,1.3l-10,5C12.3,18,12.2,18,12,18z M12,13	c-0.2,0-0.3,0-0.4-0.1l-10-5C1.2,7.7,1,7.4,1,7s0.2-0.7,0.6-0.9l10-5c0.3-0.1,0.6-0.1,0.9,0l10,5C22.8,6.3,23,6.6,23,7	s-0.2,0.7-0.6,0.9l-10,5C12.3,13,12.2,13,12,13z M4.2,7l7.8,3.9L19.8,7L12,3.1L4.2,7z"/></svg>