<svg xmlns="http://www.w3.org/2000/svg" width="30" height="27">
  <path d="M27 2.4a8 8 0 0 1 2.6 3.8 8.5 8.5 0 0 1 .2 4.5 7.8 7.8 0 0 1-2.1 3.9L16.3 26.3a1.9 1.9 0 0 1-2.6 0L2.3 14.6a8.1 8.1 0 0 1-2-4 8.5 8.5 0 0 1 .1-4.4A8 8 0 0 1 3 2.4c1.2-1 2.5-1.6 4-1.7 1.2-.2 2.6 0 3.9.5 1.2.5 2.2 1.1 3 2L15 4.4l1.2-1.2A8.3 8.3 0 0 1 19.6 1a8 8 0 0 1 4-.3A7 7 0 0 1 27 2.4zm-.7 10.9c.8-.8 1.3-1.8 1.6-3 .3-1 .3-2.2 0-3.3a6.2 6.2 0 0 0-2-3.1c-1-.9-2.1-1.3-3.3-1.4-1 0-2 .2-3 .6-.9.4-1.6.9-2 1.5L15 7l-2.5-2.5a6.7 6.7 0 0 0-5-2.1C6.1 2.5 5 3 4 3.9a6.2 6.2 0 0 0-2 3.1c-.3 1.1-.3 2.2 0 3.4.3 1.1.8 2.1 1.6 2.9L15 25l11.3-11.7z"/>
</svg>
