<svg height="512" width="512" xmlns="http://www.w3.org/2000/svg">
  <path d="M117.758 138.238C52.714 138.238.013 190.986.013 256.015s52.701 117.746 117.745 117.746c65.027 0 117.744-52.717 117.744-117.746s-52.718-117.777-117.744-117.777zM394.228 138.238c-65.028 0-117.76 52.748-117.76 117.777s52.729 117.746 117.76 117.746c65.029 0 117.76-52.717 117.76-117.746s-52.731-117.777-117.76-117.777zm55.512 173.276c-14.843 14.844-34.529 23-55.513 23-20.968 0-40.688-8.156-55.515-23-14.825-14.812-22.997-34.529-22.997-55.498 0-20.999 8.172-40.717 22.997-55.529 14.827-14.812 34.547-23 55.515-23 20.981 0 40.67 8.188 55.513 23 14.813 14.813 22.999 34.53 22.999 55.529 0 20.968-8.186 40.686-22.999 55.498z"/>
</svg>