<svg width="383" height="333" xmlns="http://www.w3.org/2000/svg">
  <path d="M353.824 21.172l-1.264-3.206a.388.388 0 0 0-.199-.209l-3.138-1.425C323.391 4.599 286.954 1.704 254.716.421h-36.31c-.41 0-.535.554-.166.731l74.584 35.757c.421.201.188.827-.264.709-33.543-8.76-67.429-13.194-100.89-13.194-33.353 0-67.129 4.407-100.569 13.111-.455.118-.686-.515-.259-.712l77.201-35.667c.374-.173.252-.733-.161-.733h-39.257C96.388 1.706 59.949 4.601 34.118 16.334l-3.138 1.425a.381.381 0 0 0-.199.209l-1.264 3.206C3.081 88.16-4.431 201.879 3.58 273.12l.42 3.736 2.972 2.305c41.298 32.024 96.519 48.489 131.258 52.858l4.492.565a3.176 3.176 0 0 0 3.371-2.038l22.61-60.407a3.176 3.176 0 0 0-2.481-4.251l-6.938-1.09c-24.193-3.801-58.47-13.877-87.437-40.147-.618-.561-.022-1.569.76-1.279 2.354.875 4.95 1.889 7.623 2.933 6.55 2.559 13.324 5.205 17.744 6.255 31.064 7.386 62.565 11.132 93.694 11.132v-.554h.065l.004.554c31.066 0 62.566-3.745 93.627-11.132 4.422-1.051 11.196-3.696 17.747-6.256a499.28 499.28 0 0 1 7.619-2.932c.782-.29 1.378.719.76 1.279-28.87 26.154-63.19 36.204-87.437 40.002l-6.936 1.086a3.175 3.175 0 0 0-2.484 4.248l22.614 60.556a3.176 3.176 0 0 0 3.371 2.04l4.496-.565c34.737-4.369 89.954-20.834 131.253-52.858l2.972-2.305.42-3.736c8.012-71.24.5-184.96-25.935-251.947zm-235.95 164.462c-28.083 2.504-51.512-20.923-49.011-49.006 1.918-21.527 19.252-38.863 40.78-40.783 28.083-2.504 51.512 20.923 49.011 49.006-1.919 21.527-19.253 38.863-40.78 40.783zm155.826 0c-28.083 2.504-51.512-20.923-49.011-49.006 1.918-21.527 19.252-38.863 40.78-40.783 28.082-2.504 51.512 20.923 49.011 49.006-1.919 21.527-19.253 38.863-40.78 40.783z"/>
</svg>
