<svg xmlns="http://www.w3.org/2000/svg" viewBox="0 0 304.36 304.36">
  <path d="M261.94 175.58c10.1 9.85 20.76 19.13 29.81 29.98 4 4.82 7.79 9.8 10.69 15.4 4.1 7.95.38 16.7-6.75 17.18l-44.34-.02c-11.44.94-20.56-3.66-28.23-11.48-6.14-6.25-11.82-12.9-17.73-19.37a41.98 41.98 0 0 0-7.98-7.1c-6.05-3.92-11.3-2.72-14.76 3.6-3.52 6.41-4.32 13.52-4.67 20.68-.47 10.44-3.63 13.19-14.12 13.67-22.41 1.05-43.68-2.34-63.45-13.65-17.42-9.96-30.93-24.04-42.69-39.97-22.9-31.02-40.42-65.1-56.18-100.15-3.55-7.9-.96-12.13 7.75-12.28 14.47-.28 28.93-.26 43.41-.02 5.88.09 9.78 3.46 12.05 9.01 7.82 19.24 17.4 37.55 29.42 54.52 3.2 4.52 6.46 9.04 11.11 12.22 5.14 3.52 9.06 2.35 11.48-3.38 1.53-3.63 2.2-7.54 2.55-11.43 1.15-13.38 1.3-26.74-.71-40.08-1.24-8.32-5.92-13.7-14.23-15.28-4.24-.8-3.6-2.38-1.56-4.8 3.57-4.17 6.92-6.77 13.6-6.77h50.11c7.9 1.55 9.64 5.1 10.72 13.04l.05 55.66c-.09 3.07 1.53 12.2 7.07 14.23 4.43 1.44 7.35-2.1 10-4.9 12-12.74 20.57-27.8 28.22-43.38 3.4-6.85 6.31-13.96 9.14-21.07 2.1-5.28 5.38-7.88 11.33-7.76l48.23.04c1.43 0 2.87.02 4.26.26 8.13 1.39 10.35 4.88 7.84 12.82-3.95 12.45-11.65 22.82-19.17 33.25-8.04 11.13-16.65 21.88-24.62 33.07-7.33 10.22-6.75 15.38 2.36 24.26zm0 0" />
</svg>
