<svg viewBox="0 0 430.1 430.1" xmlns="http://www.w3.org/2000/svg">
  <path d="M367.2 28.8c-59.8-2-100.3 31.6-121.4 100.7 10.9-4.5 21.5-6.8 31.9-6.8 21.8 0 31.5 12.2 28.9 36.8-1.3 14.9-10.9 36.5-28.9 64.9-18 28.4-31.5 42.6-40.5 42.6-11.6 0-22.2-22-31.9-65.8-3.2-12.9-9-45.8-17.3-98.8-7.8-49-28.3-72-61.7-68.7-14.1 1.2-35.3 14.1-63.6 38.6C42.1 91 21.2 109.8 0 128.5l20.2 26.1C39.5 141 50.8 134.3 54 134.3c14.8 0 28.6 23.2 41.5 69.7 11.5 42.6 23.2 85.2 34.7 127.8 17.3 46.5 38.5 69.7 63.6 69.7 40.5 0 90-38.1 148.5-114.2C398.8 214.4 428 156.9 430 115c2.5-56.2-18.4-85-62.8-86.2z"/>
</svg>