<svg width="480" height="480" xmlns="http://www.w3.org/2000/svg">
  <path d="M240.012.004l53.832 39.039 66.168-6.91 27.07 60.824 60.8 27.047-6.913 66.137 39.043 53.863-39.043 53.832 6.914 66.168-60.824 27.07-27.047 60.801-66.137-6.91-53.863 39.039-53.832-39.04-66.168 6.911-27.075-60.824-60.8-27.047 6.914-66.137L.01 240.004l39.04-53.832-6.914-66.168L92.96 92.93l27.05-60.797 66.137 6.91L240.012.003zm87.758 154.96L192.012 290.724l-45.282-45.2-22.64 22.559 67.922 67.922L350.41 177.602l-22.64-22.637z"/>
</svg>
