<?xml version="1.0" encoding="utf-8"?><svg xmlns="http://www.w3.org/2000/svg" xmlns:xlink="http://www.w3.org/1999/xlink"><symbol viewBox="0 0 24 24" id="arrow-down" xmlns="http://www.w3.org/2000/svg"><path d="M12 21c-.6 0-1-.4-1-1V4c0-.6.4-1 1-1s1 .4 1 1v16c0 .6-.4 1-1 1z"/><path d="M12 21c-.3 0-.5-.1-.7-.3l-6-6c-.4-.4-.4-1 0-1.4s1-.4 1.4 0l5.3 5.3 5.3-5.3c.4-.4 1-.4 1.4 0s.4 1 0 1.4l-6 6c-.2.2-.4.3-.7.3z"/></symbol><symbol viewBox="0 0 24 24" id="arrow-left" xmlns="http://www.w3.org/2000/svg"><path d="M20 13H4c-.6 0-1-.4-1-1s.4-1 1-1h16c.6 0 1 .4 1 1s-.4 1-1 1z"/><path d="M10 19c-.3 0-.5-.1-.7-.3l-6-6c-.4-.4-.4-1 0-1.4l6-6c.4-.4 1-.4 1.4 0s.4 1 0 1.4L5.4 12l5.3 5.3c.4.4.4 1 0 1.4-.2.2-.4.3-.7.3z"/></symbol><symbol viewBox="0 0 24 24" id="arrow-right" xmlns="http://www.w3.org/2000/svg"><path d="M20 13H4c-.6 0-1-.4-1-1s.4-1 1-1h16c.6 0 1 .4 1 1s-.4 1-1 1z"/><path d="M14 19c-.3 0-.5-.1-.7-.3-.4-.4-.4-1 0-1.4l5.3-5.3-5.3-5.3c-.4-.4-.4-1 0-1.4s1-.4 1.4 0l6 6c.4.4.4 1 0 1.4l-6 6c-.2.2-.4.3-.7.3z"/></symbol><symbol viewBox="0 0 24 24" id="arrow-up" xmlns="http://www.w3.org/2000/svg"><path d="M12 21c-.6 0-1-.4-1-1V4c0-.6.4-1 1-1s1 .4 1 1v16c0 .6-.4 1-1 1z"/><path d="M18 11c-.3 0-.5-.1-.7-.3L12 5.4l-5.3 5.3c-.4.4-1 .4-1.4 0s-.4-1 0-1.4l6-6c.4-.4 1-.4 1.4 0l6 6c.4.4.4 1 0 1.4-.2.2-.4.3-.7.3z"/></symbol><symbol viewBox="0 0 24 24" id="check" xmlns="http://www.w3.org/2000/svg"><path d="M9 18c-.3 0-.5-.1-.7-.3l-5-5c-.4-.4-.4-1 0-1.4s1-.4 1.4 0L9 15.6 19.3 5.3c.4-.4 1-.4 1.4 0s.4 1 0 1.4l-11 11c-.2.2-.4.3-.7.3z"/></symbol><symbol viewBox="0 0 24 24" id="chevron-down" xmlns="http://www.w3.org/2000/svg"><path d="M12 16c-.3 0-.5-.1-.7-.3l-6-6c-.4-.4-.4-1 0-1.4.4-.4 1-.4 1.4 0l5.3 5.3 5.3-5.3c.4-.4 1-.4 1.4 0 .4.4.4 1 0 1.4l-6 6c-.2.2-.4.3-.7.3z"/></symbol><symbol viewBox="0 0 24 24" id="chevron-left" xmlns="http://www.w3.org/2000/svg"><path d="M15 19c-.3 0-.5-.1-.7-.3l-6-6c-.4-.4-.4-1 0-1.4l6-6c.4-.4 1-.4 1.4 0s.4 1 0 1.4L10.4 12l5.3 5.3c.4.4.4 1 0 1.4-.2.2-.4.3-.7.3z"/></symbol><symbol viewBox="0 0 24 24" id="chevron-right" xmlns="http://www.w3.org/2000/svg"><path d="M9 19c-.3 0-.5-.1-.7-.3-.4-.4-.4-1 0-1.4l5.3-5.3-5.3-5.3c-.4-.4-.4-1 0-1.4s1-.4 1.4 0l6 6c.4.4.4 1 0 1.4l-6 6c-.2.2-.4.3-.7.3z"/></symbol><symbol viewBox="0 0 24 24" id="chevron-up" xmlns="http://www.w3.org/2000/svg"><path d="M18 16c-.3 0-.5-.1-.7-.3L12 10.4l-5.3 5.3c-.4.4-1 .4-1.4 0-.4-.4-.4-1 0-1.4l6-6c.4-.4 1-.4 1.4 0l6 6c.4.4.4 1 0 1.4-.2.2-.4.3-.7.3z"/></symbol><symbol viewBox="0 0 24 24" id="clock" xmlns="http://www.w3.org/2000/svg"><path d="M12 23C5.9 23 1 18.1 1 12S5.9 1 12 1s11 4.9 11 11-4.9 11-11 11zm0-20c-5 0-9 4-9 9s4 9 9 9 9-4 9-9-4-9-9-9z"/><path d="M15 16c-.3 0-.5-.1-.7-.3l-3-3c-.2-.2-.3-.4-.3-.7V6c0-.6.4-1 1-1s1 .4 1 1v5.6l2.7 2.7c.4.4.4 1 0 1.4-.2.2-.4.3-.7.3z"/></symbol><symbol viewBox="0 0 24 24" id="close" xmlns="http://www.w3.org/2000/svg"><path d="M6 19c-.3 0-.5-.1-.7-.3-.4-.4-.4-1 0-1.4l12-12c.4-.4 1-.4 1.4 0s.4 1 0 1.4l-12 12c-.2.2-.4.3-.7.3z"/><path d="M18 19c-.3 0-.5-.1-.7-.3l-12-12c-.4-.4-.4-1 0-1.4s1-.4 1.4 0l12 12c.4.4.4 1 0 1.4-.2.2-.4.3-.7.3z"/></symbol><symbol viewBox="0 0 24 24" id="collections" xmlns="http://www.w3.org/2000/svg"><path d="M12 23c-.2 0-.3 0-.4-.1l-10-5c-.5-.2-.7-.8-.4-1.3s.8-.7 1.3-.4l9.6 4.8 9.6-4.8c.5-.2 1.1 0 1.3.4.2.5 0 1.1-.4 1.3l-10 5c-.3.1-.4.1-.6.1zm0-5c-.2 0-.3 0-.4-.1l-10-5c-.5-.2-.7-.8-.4-1.3.2-.5.8-.7 1.3-.4l9.6 4.8 9.6-4.8c.5-.2 1.1 0 1.3.4.2.5 0 1.1-.4 1.3l-10 5c-.3.1-.4.1-.6.1zm0-5c-.2 0-.3 0-.4-.1l-10-5C1.2 7.7 1 7.4 1 7s.2-.7.6-.9l10-5c.3-.1.6-.1.9 0l10 5c.3.2.5.5.5.9s-.2.7-.6.9l-10 5c-.1.1-.2.1-.4.1zM4.2 7l7.8 3.9L19.8 7 12 3.1 4.2 7z"/></symbol><symbol viewBox="0 0 24 24" id="external-link" xmlns="http://www.w3.org/2000/svg"><path d="M16 22H5c-1.7 0-3-1.3-3-3V8c0-1.7 1.3-3 3-3h6c.6 0 1 .4 1 1s-.4 1-1 1H5c-.6 0-1 .4-1 1v11c0 .6.4 1 1 1h11c.6 0 1-.4 1-1v-6c0-.6.4-1 1-1s1 .4 1 1v6c0 1.7-1.3 3-3 3zm5-12c-.6 0-1-.4-1-1V4h-5c-.6 0-1-.4-1-1s.4-1 1-1h6c.6 0 1 .4 1 1v6c0 .6-.4 1-1 1z"/><path d="M10 15c-.3 0-.5-.1-.7-.3-.4-.4-.4-1 0-1.4l11-11c.4-.4 1-.4 1.4 0s.4 1 0 1.4l-11 11c-.2.2-.4.3-.7.3z"/></symbol><symbol viewBox="0 0 24 24" id="eye" xmlns="http://www.w3.org/2000/svg"><path d="M12 21C4.5 21 .3 12.8.1 12.4c-.1-.3-.1-.6 0-.9C.3 11.2 4.5 3 12 3s11.7 8.2 11.9 8.6c.1.3.1.6 0 .9-.2.3-4.4 8.5-11.9 8.5zm-9.9-9c.9 1.6 4.5 7 9.9 7s8.9-5.4 9.9-7c-.9-1.6-4.5-7-9.9-7s-8.9 5.4-9.9 7z"/><path d="M12 16c-2.2 0-4-1.8-4-4s1.8-4 4-4 4 1.8 4 4-1.8 4-4 4zm0-6c-1.1 0-2 .9-2 2s.9 2 2 2 2-.9 2-2-.9-2-2-2z"/></symbol><symbol viewBox="0 0 30 27" id="heart" xmlns="http://www.w3.org/2000/svg"><path d="M27 2.4a8 8 0 012.6 3.8c.5 1.5.5 3 .2 4.5s-1 2.8-2.1 3.9L16.3 26.3a1.9 1.9 0 01-2.6 0L2.3 14.6A8.5 8.5 0 013 2.4C4.2 1.4 5.5.8 7 .7c1.2-.2 2.6 0 3.9.5 1.2.5 2.2 1.1 3 2L15 4.4l1.2-1.2A8.3 8.3 0 0123.6.7 7 7 0 0127 2.4z"/></symbol><symbol viewBox="0 0 30 27" id="heart-empty" xmlns="http://www.w3.org/2000/svg"><path d="M27 2.4a8 8 0 012.6 3.8 8.5 8.5 0 01.2 4.5 7.8 7.8 0 01-2.1 3.9L16.3 26.3a1.9 1.9 0 01-2.6 0L2.3 14.6a8.1 8.1 0 01-2-4 8.5 8.5 0 01.1-4.4A8 8 0 013 2.4C4.2 1.4 5.5.8 7 .7c1.2-.2 2.6 0 3.9.5 1.2.5 2.2 1.1 3 2L15 4.4l1.2-1.2A8.3 8.3 0 0119.6 1a8 8 0 014-.3A7 7 0 0127 2.4zm-.7 10.9c.8-.8 1.3-1.8 1.6-3 .3-1 .3-2.2 0-3.3a6.2 6.2 0 00-2-3.1c-1-.9-2.1-1.3-3.3-1.4-1 0-2 .2-3 .6-.9.4-1.6.9-2 1.5L15 7l-2.5-2.5a6.7 6.7 0 00-5-2.1C6.1 2.5 5 3 4 3.9A6.2 6.2 0 002 7c-.3 1.1-.3 2.2 0 3.4.3 1.1.8 2.1 1.6 2.9L15 25l11.3-11.7z"/></symbol><symbol viewBox="0 0 24 24" id="link" xmlns="http://www.w3.org/2000/svg"><path d="M14 16c-1.8 0-3.6-.8-4.8-2.4-.3-.4-.2-1.1.2-1.4.4-.3 1.1-.2 1.4.2 1.3 1.8 3.8 2.1 5.6.8.2-.1.3-.2.4-.4l3-3c1.5-1.6 1.5-4.1-.1-5.6s-4-1.5-5.6 0l-1.7 1.7c-.4.4-1 .4-1.4 0-.4-.4-.4-1 0-1.4l1.7-1.7c2.3-2.3 6-2.3 8.3 0 2.4 2.3 2.4 6.1.1 8.5l-3 3-.6.6c-1 .7-2.2 1.1-3.5 1.1z"/><path d="M7.1 22.9c-1.5 0-3-.6-4.2-1.7-1.2-1.1-1.8-2.6-1.8-4.2s.6-3.1 1.7-4.3l3-3c.2-.1.4-.3.6-.5 1.3-1 2.9-1.4 4.4-1.1 1.6.2 3 1.1 3.9 2.3.3.4.2 1.1-.2 1.4-.4.3-1.1.2-1.4-.2-.6-.9-1.6-1.4-2.6-1.6-1.1-.2-2.1.1-3 .8-.2.1-.3.2-.4.4l-3 3c-.7.7-1.1 1.7-1 2.8s.5 2.1 1.2 2.8c1.6 1.5 4 1.5 5.6 0l1.7-1.7c.4-.4 1-.4 1.4 0s.4 1 0 1.4l-1.7 1.7c-1.2 1.2-2.7 1.7-4.2 1.7z"/></symbol><symbol viewBox="0 0 24 24" id="pocket" xmlns="http://www.w3.org/2000/svg"><path d="M12 22C5.9 22 1 17.1 1 11V5c0-1.7 1.3-3 3-3h16c1.7 0 3 1.3 3 3v6c0 6.1-4.9 11-11 11zM4 4c-.6 0-1 .4-1 1v6c0 5 4 9 9 9s9-4 9-9V5c0-.6-.4-1-1-1H4z"/><path d="M12 15a.9.9 0 01-.7-.3l-4-4c-.4-.4-.4-1 0-1.4s1-.4 1.4 0l3.3 3.3 3.3-3.3c.4-.4 1-.4 1.4 0s.4 1 0 1.4l-4 4c-.2.2-.4.3-.7.3z"/></symbol><symbol viewBox="0 0 24 24" id="reply" xmlns="http://www.w3.org/2000/svg"><path d="M9 21c-.3 0-.5-.1-.7-.3l-5-5c-.4-.4-.4-1 0-1.4l5-5c.4-.4 1-.4 1.4 0s.4 1 0 1.4L5.4 15l4.3 4.3c.4.4.4 1 0 1.4-.2.2-.4.3-.7.3z"/><path d="M16 16H4c-.6 0-1-.4-1-1s.4-1 1-1h12c1.7 0 3-1.3 3-3V4c0-.6.4-1 1-1s1 .4 1 1v7c0 2.8-2.2 5-5 5z"/></symbol><symbol viewBox="0 0 24 24" id="search" xmlns="http://www.w3.org/2000/svg"><path d="M10.5 19C5.8 19 2 15.2 2 10.5S5.8 2 10.5 2 19 5.8 19 10.5 15.2 19 10.5 19zm0-15C6.9 4 4 6.9 4 10.5S6.9 17 10.5 17s6.5-2.9 6.5-6.5S14.1 4 10.5 4z"/><path d="M21 22c-.3 0-.5-.1-.7-.3l-5.2-5.2c-.4-.4-.4-1 0-1.4s1-.4 1.4 0l5.2 5.2c.4.4.4 1 0 1.4-.2.2-.4.3-.7.3z"/></symbol><symbol viewBox="0 0 383 333" id="social-discord" xmlns="http://www.w3.org/2000/svg"><path d="M353.824 21.172l-1.264-3.206a.388.388 0 00-.199-.209l-3.138-1.425C323.391 4.599 286.954 1.704 254.716.421h-36.31c-.41 0-.535.554-.166.731l74.584 35.757c.421.201.188.827-.264.709-33.543-8.76-67.429-13.194-100.89-13.194-33.353 0-67.129 4.407-100.569 13.111-.455.118-.686-.515-.259-.712l77.201-35.667c.374-.173.252-.733-.161-.733h-39.257C96.388 1.706 59.949 4.601 34.118 16.334l-3.138 1.425a.381.381 0 00-.199.209l-1.264 3.206C3.081 88.16-4.431 201.879 3.58 273.12l.42 3.736 2.972 2.305c41.298 32.024 96.519 48.489 131.258 52.858l4.492.565a3.176 3.176 0 003.371-2.038l22.61-60.407a3.176 3.176 0 00-2.481-4.251l-6.938-1.09c-24.193-3.801-58.47-13.877-87.437-40.147-.618-.561-.022-1.569.76-1.279 2.354.875 4.95 1.889 7.623 2.933 6.55 2.559 13.324 5.205 17.744 6.255 31.064 7.386 62.565 11.132 93.694 11.132v-.554h.065l.004.554c31.066 0 62.566-3.745 93.627-11.132 4.422-1.051 11.196-3.696 17.747-6.256a499.28 499.28 0 017.619-2.932c.782-.29 1.378.719.76 1.279-28.87 26.154-63.19 36.204-87.437 40.002l-6.936 1.086a3.175 3.175 0 00-2.484 4.248l22.614 60.556a3.176 3.176 0 003.371 2.04l4.496-.565c34.737-4.369 89.954-20.834 131.253-52.858l2.972-2.305.42-3.736c8.012-71.24.5-184.96-25.935-251.947zm-235.95 164.462c-28.083 2.504-51.512-20.923-49.011-49.006 1.918-21.527 19.252-38.863 40.78-40.783 28.083-2.504 51.512 20.923 49.011 49.006-1.919 21.527-19.253 38.863-40.78 40.783zm155.826 0c-28.083 2.504-51.512-20.923-49.011-49.006 1.918-21.527 19.252-38.863 40.78-40.783 28.082-2.504 51.512 20.923 49.011 49.006-1.919 21.527-19.253 38.863-40.78 40.783z"/></symbol><symbol viewBox="0 0 24 24" id="social-email" xmlns="http://www.w3.org/2000/svg"><path d="M20 21H4c-1.7 0-3-1.3-3-3V6c0-1.7 1.3-3 3-3h16c1.7 0 3 1.3 3 3v12c0 1.7-1.3 3-3 3zM4 5c-.6 0-1 .4-1 1v12c0 .6.4 1 1 1h16c.6 0 1-.4 1-1V6c0-.6-.4-1-1-1H4z"/><path d="M12 14c-.2 0-.4-.1-.6-.2l-10-7c-.4-.3-.5-.9-.2-1.4.3-.4.9-.5 1.4-.2l9.4 6.6 9.4-6.6c.5-.3 1.1-.2 1.4.2.3.5.2 1.1-.2 1.4l-10 7c-.2.1-.4.2-.6.2z"/></symbol><symbol viewBox="0 0 96.124 96.123" id="social-facebook" xmlns="http://www.w3.org/2000/svg"><path d="M72.089.02L59.624 0C45.62 0 36.57 9.285 36.57 23.656v10.907H24.037a1.96 1.96 0 00-1.96 1.961v15.803a1.96 1.96 0 001.96 1.96H36.57v39.876a1.96 1.96 0 001.96 1.96h16.352a1.96 1.96 0 001.96-1.96V54.287h14.654a1.96 1.96 0 001.96-1.96l.006-15.803a1.963 1.963 0 00-1.961-1.961H56.842v-9.246c0-4.444 1.059-6.7 6.848-6.7l8.397-.003a1.96 1.96 0 001.959-1.96V1.98A1.96 1.96 0 0072.089.02z"/></symbol><symbol viewBox="0 0 512 512" id="social-flickr" xmlns="http://www.w3.org/2000/svg"><path d="M117.758 138.238C52.714 138.238.013 190.986.013 256.015s52.701 117.746 117.745 117.746c65.027 0 117.744-52.717 117.744-117.746s-52.718-117.777-117.744-117.777zm276.47 0c-65.028 0-117.76 52.748-117.76 117.777s52.729 117.746 117.76 117.746c65.029 0 117.76-52.717 117.76-117.746s-52.731-117.777-117.76-117.777zm55.512 173.276c-14.843 14.844-34.529 23-55.513 23-20.968 0-40.688-8.156-55.515-23-14.825-14.812-22.997-34.529-22.997-55.498 0-20.999 8.172-40.717 22.997-55.529 14.827-14.812 34.547-23 55.515-23 20.981 0 40.67 8.188 55.513 23 14.813 14.813 22.999 34.53 22.999 55.529 0 20.968-8.186 40.686-22.999 55.498z"/></symbol><symbol viewBox="0 0 210 210" id="social-google" xmlns="http://www.w3.org/2000/svg"><path d="M0 105C0 47.103 47.103 0 105 0c23.383 0 45.515 7.523 64.004 21.756l-24.4 31.696C133.172 44.652 119.477 40 105 40c-35.841 0-65 29.159-65 65s29.159 65 65 65c28.867 0 53.398-18.913 61.852-45H105V85h105v20c0 57.897-47.103 105-105 105S0 162.897 0 105z"/></symbol><symbol viewBox="0 0 66 52" id="social-indiehackers" xmlns="http://www.w3.org/2000/svg"><path d="M0 0h12v52H0zm24 0h12v52H24z"/><path d="M34 20h22v12H34z"/><path d="M54 0h12v52H54z"/></symbol><symbol viewBox="174.326 -0.002 841.896 841.896" id="social-instagram" xmlns="http://www.w3.org/2000/svg"><path d="M861.51 201.011c.006 26.902-21.798 48.714-48.699 48.72s-48.715-21.798-48.72-48.7c-.006-26.902 21.798-48.714 48.699-48.72h.021c26.893.005 48.694 21.806 48.699 48.7zm154.713 219.935l-.01.613-2.767 176.607c-1.495 132.445-108.498 239.448-240.942 240.943l-177.229 2.784-.613-.013-176.607-2.758C285.608 837.627 178.602 730.626 177.1 598.18l-2.772-177.235.013-.613 2.758-176.614C178.603 111.274 285.607 4.275 418.052 2.776L595.275-.002l.613.012 176.608 2.758c132.442 1.5 239.443 108.5 240.942 240.943l2.785 177.235zm-78.4 0l-2.755-175.997c-1.017-90.038-73.759-162.781-163.797-163.799l-175.996-2.749-175.996 2.749c-90.038 1.02-162.779 73.761-163.801 163.799l-2.748 175.997 2.748 175.996c1.018 90.039 73.762 162.782 163.801 163.799l175.996 2.748 175.996-2.748c90.04-1.015 162.783-73.759 163.797-163.799l2.755-175.996zm-126.381 0c0 119.387-96.782 216.169-216.169 216.169s-216.169-96.782-216.169-216.169 96.782-216.169 216.169-216.169h.002c119.331.135 216.033 96.838 216.167 216.169zm-78.391 0c0-76.093-61.686-137.778-137.778-137.778s-137.778 61.686-137.778 137.778 61.686 137.778 137.778 137.778h.002c76.056-.089 137.688-61.723 137.774-137.778h.002z"/></symbol><symbol viewBox="0 0 430.117 430.117" id="social-linkedin" xmlns="http://www.w3.org/2000/svg"><path d="M430.117 261.543V420.56h-92.188V272.193c0-37.271-13.334-62.707-46.703-62.707-25.473 0-40.632 17.142-47.301 33.724-2.432 5.928-3.058 14.179-3.058 22.477V420.56h-92.219s1.242-251.285 0-277.32h92.21v39.309c-.187.294-.43.611-.606.896h.606v-.896c12.251-18.869 34.13-45.824 83.102-45.824 60.673-.001 106.157 39.636 106.157 124.818zM52.183 9.558C20.635 9.558 0 30.251 0 57.463c0 26.619 20.038 47.94 50.959 47.94h.616c32.159 0 52.159-21.317 52.159-47.94-.606-27.212-20-47.905-51.551-47.905zM5.477 420.56h92.184V143.24H5.477v277.32z"/></symbol><symbol viewBox="0 0 51 43" id="social-medium" xmlns="http://www.w3.org/2000/svg"><path d="M35.033 35.146l14.95 7.473c.026.013.05.023.071.032a.687.687 0 00.004-.078V10.729L35.033 35.146zM34.093 0L23.486 17.16l10.201 16.58L49.661 7.783zM17.315 26.296l13.84 6.92-13.84-22.49zM0 34.463c0 .234.23.605.439.71l14.917 7.458c.027.013.051.025.072.031a.665.665 0 00.004-.078V7.982L.001.266v34.197z"/></symbol><symbol viewBox="0 0 310.05 310.05" id="social-pinterest" xmlns="http://www.w3.org/2000/svg"><path d="M245.265 31.772C223.923 11.284 194.388 0 162.101 0c-49.32 0-79.654 20.217-96.416 37.176-20.658 20.9-32.504 48.651-32.504 76.139 0 34.513 14.436 61.003 38.611 70.858 1.623.665 3.256 1 4.857 1 5.1 0 9.141-3.337 10.541-8.69.816-3.071 2.707-10.647 3.529-13.936 1.76-6.495.338-9.619-3.5-14.142-6.992-8.273-10.248-18.056-10.248-30.788 0-37.818 28.16-78.011 80.352-78.011 41.412 0 67.137 23.537 67.137 61.425 0 23.909-5.15 46.051-14.504 62.35-6.5 11.325-17.93 24.825-35.477 24.825-7.588 0-14.404-3.117-18.705-8.551-4.063-5.137-5.402-11.773-3.768-18.689 1.846-7.814 4.363-15.965 6.799-23.845 4.443-14.392 8.643-27.985 8.643-38.83 0-18.55-11.404-31.014-28.375-31.014-21.568 0-38.465 21.906-38.465 49.871 0 13.715 3.645 23.973 5.295 27.912-2.717 11.512-18.865 79.953-21.928 92.859-1.771 7.534-12.44 67.039 5.219 71.784 19.841 5.331 37.576-52.623 39.381-59.172 1.463-5.326 6.582-25.465 9.719-37.845 9.578 9.226 25 15.463 40.006 15.463 28.289 0 53.73-12.73 71.637-35.843 17.367-22.418 26.932-53.664 26.932-87.978 0-26.826-11.52-53.272-31.604-72.556z"/></symbol><symbol viewBox="0 0 18 17" id="social-pocket" xmlns="http://www.w3.org/2000/svg"><path d="M15.383.107a2.281 2.281 0 012.271 2.29v6.34c0 .118-.01.234-.026.347.017.169.026.34.026.512 0 3.635-3.874 6.583-8.654 6.583-4.78 0-8.654-2.948-8.654-6.583 0-.172.008-.343.026-.512a2.286 2.286 0 01-.026-.346V2.396A2.28 2.28 0 012.617.107h12.766zm-1.076 6.375a1.148 1.148 0 10-1.625-1.625L9 8.54 5.318 4.857a1.148 1.148 0 10-1.625 1.625l4.469 4.47c.235.234.545.346.852.336.298.002.596-.11.823-.336l4.47-4.47z"/></symbol><symbol viewBox="0 0 56.7 56.7" id="social-producthunt" xmlns="http://www.w3.org/2000/svg"><path d="M28.35 3.594c-13.672 0-24.756 11.084-24.756 24.756S14.678 53.106 28.35 53.106 53.106 42.022 53.106 28.35 42.022 3.594 28.35 3.594zm3.3 29.707h-7.013v7.427h-4.951V15.972H31.65a8.664 8.664 0 110 17.33z"/><path d="M31.65 20.923h-7.013v7.427h7.014a3.713 3.713 0 000-7.427z"/></symbol><symbol viewBox="0 0 32 32" id="social-reddit" xmlns="http://www.w3.org/2000/svg"><path d="M11.517 20.696a2.603 2.603 0 01-2.601-2.6 2.603 2.603 0 012.601-2.599 2.602 2.602 0 012.599 2.599 2.601 2.601 0 01-2.599 2.6zm18.814-1.812c.039.297.059.59.059.875 0 5.406-6.468 9.804-14.417 9.804S1.556 25.165 1.556 19.759c0-.295.022-.601.065-.912A3.963 3.963 0 010 15.649a3.99 3.99 0 013.986-3.986 3.98 3.98 0 012.377.79c2.471-1.503 5.623-2.379 8.935-2.483l2.54-7.217 6.086 1.455a3.314 3.314 0 012.939-1.771 3.33 3.33 0 013.327 3.327 3.33 3.33 0 01-3.327 3.327 3.334 3.334 0 01-3.312-3.009L19.067 5.01l-1.755 4.988c3.077.194 5.996 1.063 8.301 2.472a3.974 3.974 0 012.401-.808A3.99 3.99 0 0132 15.648a3.957 3.957 0 01-1.669 3.236zM1.91 15.649c0 .399.118.787.332 1.119.525-1.113 1.348-2.163 2.417-3.084a2.079 2.079 0 00-2.749 1.965zm26.57 4.11c0-4.353-5.611-7.895-12.507-7.895S3.466 15.406 3.466 19.759s5.611 7.894 12.507 7.894c6.897 0 12.507-3.541 12.507-7.894zm-1.177-6.061c1.076.931 1.901 1.992 2.423 3.118.235-.342.364-.747.364-1.167a2.079 2.079 0 00-2.787-1.951zm-1.858-7.934c0 .781.636 1.417 1.417 1.417.782 0 1.417-.636 1.417-1.417a1.418 1.418 0 00-2.834 0zM20.773 22.73a.944.944 0 00-.675.279c-.052.05-1.3 1.227-4.15 1.227-2.815 0-3.95-1.176-3.953-1.18a.955.955 0 00-1.445 1.248c.044.052.461.523 1.342.973 1.13.577 2.495.869 4.057.869 1.552 0 2.933-.287 4.107-.854.909-.439 1.362-.897 1.411-.949A.958.958 0 0021.441 23a.958.958 0 00-.668-.27zm-.03-7.233a2.603 2.603 0 00-2.601 2.599c0 1.434 1.167 2.6 2.601 2.6a2.602 2.602 0 002.599-2.6 2.6 2.6 0 00-2.599-2.599z"/></symbol><symbol viewBox="0 0 190 170" id="social-telegram" xmlns="http://www.w3.org/2000/svg"><path d="M152.531 169.476c-1.48 0-2.95-.438-4.211-1.293l-47.641-32.316-25.552 18.386a7.502 7.502 0 01-11.633-4.174l-12.83-48.622L4.821 83.928a7.501 7.501 0 01-.094-13.975L179.039.593a7.503 7.503 0 0110.282 8.408L159.898 163.38a7.499 7.499 0 01-7.367 6.096zm-47.669-48.897l42.437 28.785L170.193 29.24l-82.687 79.566 17.156 11.638c.069.043.135.089.2.135zm-35.327-6.401l5.682 21.53 12.242-8.809-16.03-10.874a7.478 7.478 0 01-1.894-1.847zM28.136 76.782l31.478 12.035a7.5 7.5 0 014.573 5.092l3.992 15.129a7.504 7.504 0 012.259-4.624L149.227 28.6 28.136 76.782z"/></symbol><symbol viewBox="0 0 612 612" id="social-twitter" xmlns="http://www.w3.org/2000/svg"><path d="M612 116.258a250.714 250.714 0 01-72.088 19.772c25.929-15.527 45.777-40.155 55.184-69.411-24.322 14.379-51.169 24.82-79.775 30.48-22.907-24.437-55.49-39.658-91.63-39.658-69.334 0-125.551 56.217-125.551 125.513 0 9.828 1.109 19.427 3.251 28.606-104.326-5.24-196.835-55.223-258.75-131.174-10.823 18.51-16.98 40.078-16.98 63.101 0 43.559 22.181 81.993 55.835 104.479a125.556 125.556 0 01-56.867-15.756v1.568c0 60.806 43.291 111.554 100.693 123.104-10.517 2.83-21.607 4.398-33.08 4.398-8.107 0-15.947-.803-23.634-2.333 15.985 49.907 62.336 86.199 117.253 87.194-42.947 33.654-97.099 53.655-155.916 53.655-10.134 0-20.116-.612-29.944-1.721 55.567 35.681 121.536 56.485 192.438 56.485 230.948 0 357.188-191.291 357.188-357.188l-.421-16.253c24.666-17.593 46.005-39.697 62.794-64.861z"/></symbol><symbol viewBox="0 0 430.1 430.1" id="social-vimeo" xmlns="http://www.w3.org/2000/svg"><path d="M367.2 28.8c-59.8-2-100.3 31.6-121.4 100.7 10.9-4.5 21.5-6.8 31.9-6.8 21.8 0 31.5 12.2 28.9 36.8-1.3 14.9-10.9 36.5-28.9 64.9-18 28.4-31.5 42.6-40.5 42.6-11.6 0-22.2-22-31.9-65.8-3.2-12.9-9-45.8-17.3-98.8-7.8-49-28.3-72-61.7-68.7-14.1 1.2-35.3 14.1-63.6 38.6C42.1 91 21.2 109.8 0 128.5l20.2 26.1C39.5 141 50.8 134.3 54 134.3c14.8 0 28.6 23.2 41.5 69.7 11.5 42.6 23.2 85.2 34.7 127.8 17.3 46.5 38.5 69.7 63.6 69.7 40.5 0 90-38.1 148.5-114.2C398.8 214.4 428 156.9 430 115c2.5-56.2-18.4-85-62.8-86.2z"/></symbol><symbol viewBox="0 0 304.36 304.36" id="social-vk" xmlns="http://www.w3.org/2000/svg"><path d="M261.94 175.58c10.1 9.85 20.76 19.13 29.81 29.98 4 4.82 7.79 9.8 10.69 15.4 4.1 7.95.38 16.7-6.75 17.18l-44.34-.02c-11.44.94-20.56-3.66-28.23-11.48-6.14-6.25-11.82-12.9-17.73-19.37a41.98 41.98 0 00-7.98-7.1c-6.05-3.92-11.3-2.72-14.76 3.6-3.52 6.41-4.32 13.52-4.67 20.68-.47 10.44-3.63 13.19-14.12 13.67-22.41 1.05-43.68-2.34-63.45-13.65-17.42-9.96-30.93-24.04-42.69-39.97-22.9-31.02-40.42-65.1-56.18-100.15-3.55-7.9-.96-12.13 7.75-12.28 14.47-.28 28.93-.26 43.41-.02 5.88.09 9.78 3.46 12.05 9.01 7.82 19.24 17.4 37.55 29.42 54.52 3.2 4.52 6.46 9.04 11.11 12.22 5.14 3.52 9.06 2.35 11.48-3.38 1.53-3.63 2.2-7.54 2.55-11.43 1.15-13.38 1.3-26.74-.71-40.08-1.24-8.32-5.92-13.7-14.23-15.28-4.24-.8-3.6-2.38-1.56-4.8 3.57-4.17 6.92-6.77 13.6-6.77h50.11c7.9 1.55 9.64 5.1 10.72 13.04l.05 55.66c-.09 3.07 1.53 12.2 7.07 14.23 4.43 1.44 7.35-2.1 10-4.9 12-12.74 20.57-27.8 28.22-43.38 3.4-6.85 6.31-13.96 9.14-21.07 2.1-5.28 5.38-7.88 11.33-7.76l48.23.04c1.43 0 2.87.02 4.26.26 8.13 1.39 10.35 4.88 7.84 12.82-3.95 12.45-11.65 22.82-19.17 33.25-8.04 11.13-16.65 21.88-24.62 33.07-7.33 10.22-6.75 15.38 2.36 24.26zm0 0"/></symbol><symbol viewBox="0 0 310 310" id="social-youtube" xmlns="http://www.w3.org/2000/svg"><path d="M297.917 64.645c-11.19-13.302-31.85-18.728-71.306-18.728H83.386c-40.359 0-61.369 5.776-72.517 19.938C0 79.663 0 100.008 0 128.166v53.669c0 54.551 12.896 82.248 83.386 82.248h143.226c34.216 0 53.176-4.788 65.442-16.527C304.633 235.518 310 215.863 310 181.835v-53.669c0-29.695-.841-50.16-12.083-63.521zm-98.896 97.765l-65.038 33.991a9.997 9.997 0 01-14.632-8.863v-67.764a10 10 0 0114.609-8.874l65.038 33.772a10 10 0 01.023 17.738z"/></symbol><symbol viewBox="0 0 22 21" id="star" xmlns="http://www.w3.org/2000/svg"><path d="M7.25 6.35l-6.4.93-.1.02A1 1 0 00.3 9l4.63 4.5-1.1 6.36v.11a1 1 0 001.46.95L11 17.9l5.71 3 .1.05a1 1 0 001.36-1.1l-1.1-6.36 4.63-4.5.08-.09a1 1 0 00-.64-1.62l-6.39-.93L11.9.55a1 1 0 00-1.8 0l-2.85 5.8zM11 3.25l2.2 4.45.05.1c.16.25.41.4.7.45l4.9.72-3.55 3.45-.08.1a1 1 0 00-.2.79l.83 4.88-4.38-2.3-.12-.06a1 1 0 00-.82.05L6.15 18.2l.84-4.88v-.12a1 1 0 00-.3-.77L3.16 8.97l4.9-.72a1 1 0 00.76-.55L11 3.26z"/></symbol><symbol viewBox="0 0 24 24" id="tag" xmlns="http://www.w3.org/2000/svg"><path d="M12 22.2c-.8 0-1.6-.3-2.1-.9l-8.6-8.6c-.2-.2-.3-.4-.3-.7V2c0-.6.4-1 1-1h10c.3 0 .5.1.7.3l8.6 8.6c1.2 1.2 1.2 3.1 0 4.2l-7.2 7.2c-.5.6-1.3.9-2.1.9zM3 11.6l8.3 8.3c.2.2.4.3.7.3.3 0 .5-.1.7-.3l7.2-7.2c.4-.4.4-1 0-1.4L11.6 3H3v8.6zm17.6 1.8z"/><path d="M7 8c-.3 0-.5-.1-.7-.3-.2-.2-.3-.4-.3-.7v-.2c0-.1 0-.1.1-.2 0-.1.1-.1.1-.2l.1-.1c.1-.1.2-.2.3-.2.2-.1.4-.1.6-.1.1 0 .1 0 .2.1.1 0 .1 0 .2.1l.1.1.1.1c0 .1.1.1.1.2s0 .1.1.2V7c0 .1 0 .3-.1.4 0 .1-.1.2-.2.3-.1 0-.1.1-.1.1-.1 0-.1.1-.2.1-.1.1-.1.1-.2.1H7z"/></symbol><symbol viewBox="0 0 24 24" id="thumbs-down" xmlns="http://www.w3.org/2000/svg"><path d="M13 23c-2.2 0-4-1.8-4-4v-3H3.8c-1.6-.2-2.8-1.8-2.5-3.4l1.4-9C3 2.1 4.2 1 5.7 1h14c1.6 0 3 1.2 3.3 2.9v7.2c-.2 1.7-1.7 2.9-3.3 2.9h-2L14 22.4c-.2.4-.6.6-1 .6zm-3-9c.6 0 1 .4 1 1v4c0 .9.6 1.6 1.4 1.9l3.6-8.1V3H5.7c-.5 0-.9.4-1 .9l-1.4 9c-.1.5.3 1.1.8 1.1H10zm8-2h1.7c.7 0 1.2-.4 1.3-1.1V4.1c-.1-.7-.7-1.1-1.3-1.1H18v9z"/></symbol><symbol viewBox="0 0 24 24" id="thumbs-up" xmlns="http://www.w3.org/2000/svg"><path d="M18.3 23H4c-1.7 0-3-1.3-3-3v-7c0-1.7 1.3-3 3-3h2.4l3.7-8.4c.1-.4.5-.6.9-.6 2.2 0 4 1.8 4 4v3h5.2c.8.1 1.5.5 2 1.2.5.6.7 1.4.5 2.2l-1.4 9c-.3 1.5-1.5 2.6-3 2.6zM8 21h10.3c.5 0 .9-.4 1-.8l1.4-9c0-.3 0-.5-.2-.7-.2-.2-.4-.4-.7-.4H14c-.6 0-1-.4-1-1V5c0-.9-.6-1.6-1.4-1.9L8 11.2V21zm-4-9c-.6 0-1 .4-1 1v7c0 .6.4 1 1 1h2v-9H4z"/></symbol><symbol viewBox="0 0 480 480" id="verified" xmlns="http://www.w3.org/2000/svg"><path d="M240.012.004l53.832 39.039 66.168-6.91 27.07 60.824 60.8 27.047-6.913 66.137 39.043 53.863-39.043 53.832 6.914 66.168-60.824 27.07-27.047 60.801-66.137-6.91-53.863 39.039-53.832-39.04-66.168 6.911-27.075-60.824-60.8-27.047 6.914-66.137L.01 240.004l39.04-53.832-6.914-66.168L92.96 92.93l27.05-60.797 66.137 6.91L240.012.003zm87.758 154.96l-135.758 135.76-45.282-45.2-22.64 22.559 67.922 67.922L350.41 177.602l-22.64-22.637z"/></symbol></svg>