<svg xmlns="http://www.w3.org/2000/svg">
  <!-- Arrows -->
  <symbol id="arrow-up" viewBox="0 0 24 24">
    <path fill="transparent" stroke="currentColor" stroke-linecap="round" stroke-linejoin="round" stroke-width="2" d="M5 10l7-7m0 0l7 7m-7-7v18" />
  </symbol>

  <symbol id="arrow-right" viewBox="0 0 24 24">
    <path fill="transparent" stroke="currentColor" stroke-linecap="round" stroke-linejoin="round" stroke-width="2" d="M14 5l7 7m0 0l-7 7m7-7H3" />
  </symbol>

  <symbol id="arrow-down" viewBox="0 0 24 24">
    <path fill="transparent" stroke="currentColor" stroke-linecap="round" stroke-linejoin="round" stroke-width="2" d="M19 14l-7 7m0 0l-7-7m7 7V3" />
  </symbol>

  <symbol id="arrow-left" viewBox="0 0 24 24">
    <path fill="transparent" stroke="currentColor" stroke-linecap="round" stroke-linejoin="round" stroke-width="2" d="M10 19l-7-7m0 0l7-7m-7 7h18" />
  </symbol>

  <!-- Chevrons -->
  <symbol id="chevron-up" viewBox="0 0 24 24">
    <path fill="transparent" stroke="currentColor" stroke-linecap="round" stroke-linejoin="round" stroke-width="2" d="M5 15l7-7 7 7" />
  </symbol>

  <symbol id="chevron-right" viewBox="0 0 24 24">
    <path fill="transparent" stroke="currentColor" stroke-linecap="round" stroke-linejoin="round" stroke-width="2" d="M9 5l7 7-7 7" />
  </symbol>

  <symbol id="chevron-down" viewBox="0 0 24 24">
    <path fill="transparent" stroke="currentColor" stroke-linecap="round" stroke-linejoin="round" stroke-width="2" d="M19 9l-7 7-7-7" />
  </symbol>

  <symbol id="chevron-left" viewBox="0 0 24 24">
    <path fill="transparent" stroke="currentColor" stroke-linecap="round" stroke-linejoin="round" stroke-width="2" d="M15 19l-7-7 7-7" />
  </symbol>

  <!-- UI -->
  <symbol id="bookmark" viewBox="0 0 24 24">
    <path fill="transparent" stroke="currentColor" stroke-linecap="round" stroke-linejoin="round" stroke-width="2" d="M16 4v12l-4-2-4 2V4M6 20h12a2 2 0 002-2V6a2 2 0 00-2-2H6a2 2 0 00-2 2v12a2 2 0 002 2z" />
  </symbol>

  <symbol id="check" viewBox="0 0 24 24">
    <path fill="transparent" stroke="currentColor" stroke-linecap="round" stroke-linejoin="round" stroke-width="2" d="M5 13l4 4L19 7" />
  </symbol>

  <symbol id="clock" viewBox="0 0 24 24">
    <path fill="transparent" stroke="currentColor" stroke-linecap="round" stroke-linejoin="round" stroke-width="2" d="M12 8v4l3 3m6-3a9 9 0 11-18 0 9 9 0 0118 0z" />
  </symbol>

  <symbol id="close" viewBox="0 0 24 24">
    <path fill="transparent" stroke="currentColor" stroke-linecap="round" stroke-linejoin="round" stroke-width="2" d="M19.071 4.929 4.93 19.07m14.142 0L4.93 4.93"/> />
  </symbol>

  <symbol id="collection" viewBox="0 0 24 24">
    <path fill="transparent" stroke="currentColor" stroke-linecap="round" stroke-linejoin="round" stroke-width="2" d="M19 11H5m14 0a2 2 0 012 2v6a2 2 0 01-2 2H5a2 2 0 01-2-2v-6a2 2 0 012-2m14 0V9a2 2 0 00-2-2M5 11V9a2 2 0 012-2m0 0V5a2 2 0 012-2h6a2 2 0 012 2v2M7 7h10" />
  </symbol>

  <symbol id="external-link" viewBox="0 0 24 24">
    <path fill="transparent" stroke="currentColor" stroke-linecap="round" stroke-linejoin="round" stroke-width="2" d="M10 6H6a2 2 0 00-2 2v10a2 2 0 002 2h10a2 2 0 002-2v-4M14 4h6m0 0v6m0-6L10 14" />
  </symbol>

  <symbol id="eye" viewBox="0 0 24 24">
    <path fill="transparent" stroke="currentColor" stroke-linecap="round" stroke-linejoin="round" stroke-width="2" d="M15 12a3 3 0 11-6 0 3 3 0 016 0z" />
    <path fill="transparent" stroke="currentColor" stroke-linecap="round" stroke-linejoin="round" stroke-width="2" d="M2.458 12C3.732 7.943 7.523 5 12 5c4.478 0 8.268 2.943 9.542 7-1.274 4.057-5.064 7-9.542 7-4.477 0-8.268-2.943-9.542-7z" />
  </symbol>

  <symbol id="heart" viewBox="0 0 24 24">
    <path fill="transparent" stroke="currentColor" stroke-linecap="round" stroke-linejoin="round" stroke-width="2" d="M4.318 6.318a4.5 4.5 0 000 6.364L12 20.364l7.682-7.682a4.5 4.5 0 00-6.364-6.364L12 7.636l-1.318-1.318a4.5 4.5 0 00-6.364 0z" />
  </symbol>

  <symbol id="link" viewBox="0 0 24 24">
    <path fill="transparent" stroke="currentColor" stroke-linecap="round" stroke-linejoin="round" stroke-width="2" d="M13.828 10.172a4 4 0 00-5.656 0l-4 4a4 4 0 105.656 5.656l1.102-1.101m-.758-4.899a4 4 0 005.656 0l4-4a4 4 0 00-5.656-5.656l-1.1 1.1" />
  </symbol>

  <symbol id="reply" viewBox="0 0 24 24">
    <path fill="transparent" stroke="currentColor" stroke-linecap="round" stroke-linejoin="round" stroke-width="2" d="M3 10h10a8 8 0 018 8v2M3 10l6 6m-6-6l6-6" />
  </symbol>

  <symbol id="search" viewBox="0 0 24 24">
    <path fill="transparent" stroke="currentColor" stroke-linecap="round" stroke-linejoin="round" stroke-width="2" d="M21 21l-6-6m2-5a7 7 0 11-14 0 7 7 0 0114 0z" />
  </symbol>

  <symbol id="star" viewBox="0 0 24 24">
    <path fill="transparent" stroke="currentColor" stroke-linecap="round" stroke-linejoin="round" stroke-width="2" d="M11.049 2.927c.3-.921 1.603-.921 1.902 0l1.519 4.674a1 1 0 00.95.69h4.915c.969 0 1.371 1.24.588 1.81l-3.976 2.888a1 1 0 00-.363 1.118l1.518 4.674c.3.922-.755 1.688-1.538 1.118l-3.976-2.888a1 1 0 00-1.176 0l-3.976 2.888c-.783.57-1.838-.197-1.538-1.118l1.518-4.674a1 1 0 00-.363-1.118l-3.976-2.888c-.784-.57-.38-1.81.588-1.81h4.914a1 1 0 00.951-.69l1.519-4.674z" />
  </symbol>

  <symbol id="tag" viewBox="0 0 24 24">
    <path fill="transparent" stroke="currentColor" stroke-linecap="round" stroke-linejoin="round" stroke-width="2" d="M7 7h.01M7 3h5c.512 0 1.024.195 1.414.586l7 7a2 2 0 010 2.828l-7 7a2 2 0 01-2.828 0l-7-7A1.994 1.994 0 013 12V7a4 4 0 014-4z" />
  </symbol>

  <symbol id="thumbs-up" viewBox="0 0 24 24">
    <path fill="transparent" stroke="currentColor" stroke-linecap="round" stroke-linejoin="round" stroke-width="2" d="M14 10h4.764a2 2 0 011.789 2.894l-3.5 7A2 2 0 0115.263 21h-4.017c-.163 0-.326-.02-.485-.06L7 20m7-10V5a2 2 0 00-2-2h-.095c-.5 0-.905.405-.905.905 0 .714-.211 1.412-.608 2.006L7 11v9m7-10h-2M7 20H5a2 2 0 01-2-2v-6a2 2 0 012-2h2.5" />
  </symbol>

  <symbol id="thumbs-down" viewBox="0 0 24 24">
    <path fill="transparent" stroke="currentColor" stroke-linecap="round" stroke-linejoin="round" stroke-width="2" d="M10 14H5.236a2 2 0 01-1.789-2.894l3.5-7A2 2 0 018.736 3h4.018a2 2 0 01.485.06l3.76.94m-7 10v5a2 2 0 002 2h.096c.5 0 .905-.405.905-.904 0-.715.211-1.413.608-2.008L17 13V4m-7 10h2m5-10h2a2 2 0 012 2v6a2 2 0 01-2 2h-2.5" />
  </symbol>

  <symbol id="user" viewBox="0 0 24 24">
    <path fill="transparent" stroke="currentColor" stroke-linecap="round" stroke-linejoin="round" stroke-width="2" d="M16 7a4 4 0 11-8 0 4 4 0 018 0zM12 14a7 7 0 00-7 7h14a7 7 0 00-7-7z" />
  </symbol>

  <!-- Socials -->
  <symbol id="social-facebook" viewBox="0 0 24 24">
    <path fill="currentColor" fill-rule="evenodd" clip-rule="evenodd" d="M9 8h-3v4h3v12h5v-12h3.642l.358-4h-4v-1.667c0-.955.192-1.333 1.115-1.333h2.885v-5h-3.808c-3.596 0-5.192 1.583-5.192 4.615v3.385z"/>
  </symbol>

  <symbol id="social-twitter" viewBox="0 0 24 24">
    <path fill="currentColor" fill-rule="evenodd" clip-rule="evenodd" d="M24 4.557c-.883.392-1.832.656-2.828.775 1.017-.609 1.798-1.574 2.165-2.724-.951.564-2.005.974-3.127 1.195-.897-.957-2.178-1.555-3.594-1.555-3.179 0-5.515 2.966-4.797 6.045-4.091-.205-7.719-2.165-10.148-5.144-1.29 2.213-.669 5.108 1.523 6.574-.806-.026-1.566-.247-2.229-.616-.054 2.281 1.581 4.415 3.949 4.89-.693.188-1.452.232-2.224.084.626 1.956 2.444 3.379 4.6 3.419-2.07 1.623-4.678 2.348-7.29 2.04 2.179 1.397 4.768 2.212 7.548 2.212 9.142 0 14.307-7.721 13.995-14.646.962-.695 1.797-1.562 2.457-2.549z"/>
  </symbol>

  <symbol id="social-instagram" viewBox="0 0 24 24">
    <path fill="currentColor" fill-rule="evenodd" clip-rule="evenodd" d="M12 2.163c3.204 0 3.584.012 4.85.07 3.252.148 4.771 1.691 4.919 4.919.058 1.265.069 1.645.069 4.849 0 3.205-.012 3.584-.069 4.849-.149 3.225-1.664 4.771-4.919 4.919-1.266.058-1.644.07-4.85.07-3.204 0-3.584-.012-4.849-.07-3.26-.149-4.771-1.699-4.919-4.92-.058-1.265-.07-1.644-.07-4.849 0-3.204.013-3.583.07-4.849.149-3.227 1.664-4.771 4.919-4.919 1.266-.057 1.645-.069 4.849-.069zm0-2.163c-3.259 0-3.667.014-4.947.072-4.358.2-6.78 2.618-6.98 6.98-.059 1.281-.073 1.689-.073 4.948 0 3.259.014 3.668.072 4.948.2 4.358 2.618 6.78 6.98 6.98 1.281.058 1.689.072 4.948.072 3.259 0 3.668-.014 4.948-.072 4.354-.2 6.782-2.618 6.979-6.98.059-1.28.073-1.689.073-4.948 0-3.259-.014-3.667-.072-4.947-.196-4.354-2.617-6.78-6.979-6.98-1.281-.059-1.69-.073-4.949-.073zm0 5.838c-3.403 0-6.162 2.759-6.162 6.162s2.759 6.163 6.162 6.163 6.162-2.759 6.162-6.163c0-3.403-2.759-6.162-6.162-6.162zm0 10.162c-2.209 0-4-1.79-4-4 0-2.209 1.791-4 4-4s4 1.791 4 4c0 2.21-1.791 4-4 4zm6.406-11.845c-.796 0-1.441.645-1.441 1.44s.645 1.44 1.441 1.44c.795 0 1.439-.645 1.439-1.44s-.644-1.44-1.439-1.44z"/>
  </symbol>

  <symbol id="social-linkedin" viewBox="0 0 24 24">
    <path fill="currentColor" fill-rule="evenodd" clip-rule="evenodd" d="M4.98 3.5c0 1.381-1.11 2.5-2.48 2.5s-2.48-1.119-2.48-2.5c0-1.38 1.11-2.5 2.48-2.5s2.48 1.12 2.48 2.5zm.02 4.5h-5v16h5v-16zm7.982 0h-4.968v16h4.969v-8.399c0-4.67 6.029-5.052 6.029 0v8.399h4.988v-10.131c0-7.88-8.922-7.593-11.018-3.714v-2.155z"/>
  </symbol>

  <symbol id="social-pinterest" viewBox="0 0 24 24">
    <path fill="currentColor" fill-rule="evenodd" clip-rule="evenodd" d="M12 0c-6.627 0-12 5.372-12 12 0 5.084 3.163 9.426 7.627 11.174-.105-.949-.2-2.405.042-3.441.218-.937 1.407-5.965 1.407-5.965s-.359-.719-.359-1.782c0-1.668.967-2.914 2.171-2.914 1.023 0 1.518.769 1.518 1.69 0 1.029-.655 2.568-.994 3.995-.283 1.194.599 2.169 1.777 2.169 2.133 0 3.772-2.249 3.772-5.495 0-2.873-2.064-4.882-5.012-4.882-3.414 0-5.418 2.561-5.418 5.207 0 1.031.397 2.138.893 2.738.098.119.112.224.083.345l-.333 1.36c-.053.22-.174.267-.402.161-1.499-.698-2.436-2.889-2.436-4.649 0-3.785 2.75-7.262 7.929-7.262 4.163 0 7.398 2.967 7.398 6.931 0 4.136-2.607 7.464-6.227 7.464-1.216 0-2.359-.631-2.75-1.378l-.748 2.853c-.271 1.043-1.002 2.35-1.492 3.146 1.124.347 2.317.535 3.554.535 6.627 0 12-5.373 12-12 0-6.628-5.373-12-12-12z"/>
  </symbol>

  <symbol id="social-youtube" viewBox="0 0 24 24">
    <path fill="currentColor" fill-rule="evenodd" clip-rule="evenodd" d="M19.615 3.184c-3.604-.246-11.631-.245-15.23 0-3.897.266-4.356 2.62-4.385 8.816.029 6.185.484 8.549 4.385 8.816 3.6.245 11.626.246 15.23 0 3.897-.266 4.356-2.62 4.385-8.816-.029-6.185-.484-8.549-4.385-8.816zm-10.615 12.816v-8l8 3.993-8 4.007z"/>
  </symbol>

  <symbol id="social-vimeo" viewBox="0 0 24 24">
    <path fill="currentColor" fill-rule="evenodd" clip-rule="evenodd" d="M22.875 10.063c-2.442 5.217-8.337 12.319-12.063 12.319-3.672 0-4.203-7.831-6.208-13.043-.987-2.565-1.624-1.976-3.474-.681l-1.128-1.455c2.698-2.372 5.398-5.127 7.057-5.28 1.868-.179 3.018 1.098 3.448 3.832.568 3.593 1.362 9.17 2.748 9.17 1.08 0 3.741-4.424 3.878-6.006.243-2.316-1.703-2.386-3.392-1.663 2.673-8.754 13.793-7.142 9.134 2.807z"/>
  </symbol>

  <symbol id="social-producthunt" viewBox="0 0 24 24">
    <path fill="currentColor" fill-rule="evenodd" clip-rule="evenodd" d="M14.635 1a7.7 7.7 0 1 1 0 15.4H8.4V23H4V1h10.635Zm0 11a3.3 3.3 0 1 0 0-6.6H8.4V12h6.235Z"/>
  </symbol>

  <symbol id="social-tiktok" viewBox="0 0 24 24">
    <path fill="currentColor" fill-rule="evenodd" clip-rule="evenodd" d="M20.222 5.122a5.452 5.452 0 0 1-.472-.274 6.63 6.63 0 0 1-1.211-1.029c-.903-1.033-1.24-2.082-1.365-2.816h.005C17.076.394 17.12 0 17.125 0h-4.113v15.906c0 .213 0 .424-.01.633l-.003.078c0 .011 0 .023-.003.035v.01a3.493 3.493 0 0 1-1.757 2.772 3.433 3.433 0 0 1-1.702.449c-1.917 0-3.47-1.563-3.47-3.493s1.553-3.493 3.47-3.493c.363 0 .723.057 1.068.17l.005-4.189A7.641 7.641 0 0 0 4.722 10.6a8.073 8.073 0 0 0-1.761 2.172c-.174.3-.829 1.503-.908 3.455-.05 1.108.283 2.256.441 2.731v.01c.1.28.487 1.233 1.117 2.037a8.36 8.36 0 0 0 1.782 1.68v-.01l.01.01c1.991 1.354 4.2 1.265 4.2 1.265.381-.015 1.662 0 3.116-.689 1.612-.764 2.53-1.902 2.53-1.902a7.907 7.907 0 0 0 1.38-2.292c.372-.978.496-2.152.496-2.62v-8.44c.05.03.715.47.715.47s.957.614 2.45 1.014c1.073.284 2.517.344 2.517.344V5.752c-.506.054-1.534-.105-2.585-.63Z"/>
  </symbol>

  <symbol id="social-twitch" viewBox="0 0 24 24">
    <path fill="currentColor" fill-rule="evenodd" clip-rule="evenodd" d="M2.149 0l-1.612 4.119v16.836h5.731v3.045h3.224l3.045-3.045h4.657l6.269-6.269v-14.686h-21.314zm19.164 13.612l-3.582 3.582h-5.731l-3.045 3.045v-3.045h-4.836v-15.045h17.194v11.463zm-3.582-7.343v6.262h-2.149v-6.262h2.149zm-5.731 0v6.262h-2.149v-6.262h2.149z"/>
  </symbol>

  <symbol id="social-discord" viewBox="0 0 24 24">
    <path fill="currentColor" fill-rule="evenodd" clip-rule="evenodd" d="M17.712 20.26C22.253 20.118 24 17.138 24 17.138c0-6.616-2.959-11.98-2.959-11.98C18.082 2.94 15.267 3 15.267 3l-.288.33c3.494 1.068 5.117 2.609 5.117 2.609a16.75 16.75 0 0 0-6.185-1.973 17.386 17.386 0 0 0-4.15.041l-.35.041c-.72.062-2.466.33-4.664 1.295-.76.35-1.213.596-1.213.596S5.24 4.315 8.938 3.247L8.733 3s-2.815-.06-5.774 2.158c0 0-2.959 5.363-2.959 11.98 0 0 1.726 2.979 6.267 3.123 0 0 .76-.925 1.377-1.706-2.61-.78-3.596-2.425-3.596-2.425l.575.35.082.061.081.047.024.01.08.046a12.07 12.07 0 0 0 1.5.699c.843.329 1.85.657 3.021.883 1.541.288 3.35.39 5.322.02a13.524 13.524 0 0 0 2.98-.883c.719-.267 1.52-.657 2.362-1.212 0 0-1.027 1.685-3.719 2.445a91.448 91.448 0 0 0 1.356 1.665Zm-9.554-9.595c-1.172 0-2.096 1.027-2.096 2.28 0 1.254.945 2.281 2.096 2.281 1.17 0 2.095-1.027 2.095-2.28.021-1.254-.924-2.281-2.095-2.281Zm7.5 0c-1.172 0-2.096 1.027-2.096 2.28 0 1.254.945 2.281 2.096 2.281 1.17 0 2.095-1.027 2.095-2.28 0-1.254-.924-2.281-2.095-2.281Z"/>
  </symbol>

  <symbol id="social-email" viewBox="0 0 24 24">
    <path fill="transparent" stroke="currentColor" stroke-linecap="round" stroke-linejoin="round" stroke-width="2" d="M4 4h16c1.1 0 2 .9 2 2v12c0 1.1-.9 2-2 2H4c-1.1 0-2-.9-2-2V6c0-1.1.9-2 2-2z"/>
    <path fill="transparent" stroke="currentColor" stroke-linecap="round" stroke-linejoin="round" stroke-width="2" d="m22 6-10 7L2 6"/>
  </symbol>
</svg>
