<svg xmlns="http://www.w3.org/2000/svg" viewBox="0 0 470 508" fill="#9ca2a7">
  <path d="M337.48 296.56c-6.16 0-11.199-5.04-11.199-11.199 0-6.16 5.04-11.199 11.199-11.199h34.719c-.559-.559-1.68-1.121-2.238-1.68-2.239-2.238-4.48-4.48-6.16-7.28-3.36-5.04-1.68-12.32 3.921-15.68 5.04-3.36 12.32-1.68 15.68 3.921.559 1.121 1.122 1.68 1.68 2.238 3.922 3.922 11.2 5.602 19.04 6.16 8.397 0 17.921-1.68 25.761-7.28 3.36-2.239 6.719-4.481 9.52-7.84 1.68-1.68 2.238-3.922 2.238-6.16.558-7.282-2.8-16.802-8.961-26.88-6.719-10.64-15.68-21.84-26.32-30.8-14-12.32-29.121-20.72-42-21.84-6.16-.56-10.641-5.602-10.641-11.763.559-6.16 5.602-10.64 11.762-10.64 18.48 1.12 38.641 12.32 55.441 27.44 12.32 10.641 22.961 23.52 30.801 36.398 8.398 14 12.879 28 12.32 39.762-.559 7.281-2.8 14-7.84 19.602l-.558.559c-2.246 2.8-5.606 6.16-8.965 8.402 9.52 5.04 15.68 11.762 19.039 19.04 4.48 9.519 4.48 19.038 1.12 28-2.8 8.398-8.96 16.237-16.8 22.397-12.88 8.961-30.238 12.88-49.281 6.16-27.441 33.04-37.52 34.16-58.801 36.961-7.281.559-16.238 1.68-28.56 5.04-6.16 1.68-12.32-1.68-14-7.84-1.679-6.16 1.68-12.32 7.84-14 14-3.922 24.079-5.04 31.923-6.16 16.238-2.239 23.52-2.801 49.28-35.282 3.36-4.48 9.52-5.601 14-2.8 13.442 7.28 25.763 5.039 33.603-.559 3.922-2.8 7.28-7.281 8.96-11.199 1.122-3.922 1.122-7.84-.558-11.199-3.36-7.281-14-14-34.719-15.68-1.121 0 0 1.121-1.121 2.238-3.922 3.922-8.398 7.282-15.121 9.52-1.121.558-2.238.558-3.922.558L337.48 296v.56Zm-224 103.6c1.121 6.16-2.8 11.762-8.96 13.441-6.161 1.68-11.763-2.8-13.442-8.96-4.48-21.282-6.16-40.32-5.602-57.68.56-19.04 4.481-35.84 10.079-50.399 2.238-6.16 8.398-8.96 14.558-6.719 5.602 2.239 8.399 8.961 6.16 14.56-5.038 12.32-7.84 26.878-8.398 43.12.004 15.676 1.125 33.035 5.606 52.637h-.001Zm22.398-126.56c-3.922 4.48-11.199 5.04-15.68 1.121-4.48-3.922-5.04-11.199-.559-15.68 16.238-17.922 36.398-30.238 57.68-36.96 20.72-6.161 42-8.4 61.602-6.161 6.16-18.48 14-31.36 24.641-41.441 11.762-11.762 25.762-19.04 42-26.32 5.602-2.8 12.32 0 15.121 5.602 2.801 5.601 0 12.32-5.601 15.12-14 6.72-26.32 12.88-35.84 21.84-8.961 8.961-16.238 20.72-21.281 39.762-1.121 6.16-7.281 10.078-12.88 8.961-18.48-3.359-39.761-2.8-60.48 3.922-18.48 5.594-35.28 15.672-48.722 30.234h-.001Z"/>
  <path d="M212.6 326.24c-6.16 1.68-12.32-1.68-14-7.84-1.68-6.16 1.68-12.32 7.84-14 2.8-.558 5.039-1.12 6.719-1.68 1.68-.558 3.922-.558 6.718-1.12 6.16-1.122 11.762 3.359 12.88 9.519 1.12 6.16-3.36 11.762-9.52 12.879-1.68 0-3.36.558-5.602 1.121-1.675.004-3.355.563-5.035 1.121Zm39.199-1.117c-6.16-1.68-9.52-7.84-7.84-14 1.68-6.16 7.84-9.52 14-7.84 10.078 2.8 18.48 7.84 25.762 14 15.121 12.879 24.641 31.359 29.121 51.52 3.922 19.602 3.36 41.441-2.238 59.922-1.121 3.922-2.8 8.398-4.48 11.762 61.038-8.96 64.96 7.281 75.038 43.68.559 2.8 1.68 5.04 2.239 8.398 1.68 6.16-1.68 12.32-7.84 14-1.121.559-2.238.559-3.36.559h-157.36c-6.16 0-11.198-5.04-11.198-11.199 0-6.16 5.039-11.199 11.198-11.199h66.079l77.28-.004c-6.16-21.28-12.878-29.12-71.12-17.359-3.36 1.121-7.282.559-10.078-2.238-5.04-3.922-5.602-11.2-1.68-15.68 6.16-7.281 10.64-16.238 13.44-26.32 4.481-15.68 5.04-33.04 1.68-49.281-3.359-15.68-10.64-29.68-21.28-39.2-5.04-4.48-10.641-7.839-17.36-9.519l-.003-.002Zm-64.402 159.6c6.16 0 11.199 5.039 11.199 11.199s-5.04 11.199-11.199 11.199h-1.121c-6.16 0-11.2-5.04-11.2-11.2 0-6.16 5.04-11.198 11.2-11.198h1.121Zm-31.918 0c6.16 0 11.199 5.039 11.199 11.199s-5.04 11.199-11.199 11.199c-4.48 0-8.96 0-13.441-.559-46.48-3.36-81.762-22.398-105.28-47.602C12.68 433.198.918 401.28.918 373.28v-6.719c3.36-47.602 39.199-91.84 67.762-127.12 3.36-3.921 6.16-7.84 10.641-12.879 3.922-5.039 10.641-5.601 15.68-1.68 5.039 3.923 5.602 11.2 1.68 15.68-2.801 3.36-6.72 8.4-10.641 13.442-26.32 33.039-59.922 74.48-62.72 114.8v5.039c0 22.96 10.079 49.28 29.68 70.559 19.603 21.28 49.84 37.52 90.16 40.32h12.32-.001Zm-91.84-275.52c5.04 3.922 6.16 10.64 2.238 15.68-3.922 5.039-10.64 6.16-15.68 2.238-22.96-16.8-35.84-39.199-40.879-62.719-4.48-20.16-3.36-42 1.68-62.16 5.04-20.16 14.559-39.199 26.32-55.44C52.998 25.52 73.716 9.84 95.556 5.36c30.238-6.719 66.078-6.16 98.559 3.36 21.281 6.16 41.441 16.8 57.121 31.358 16.242 15.125 28.562 34.727 34.16 59.926 5.602 24.641 3.922 53.763-6.16 88.48-1.68 6.16-7.84 9.52-14 7.282-6.16-1.68-9.52-7.84-7.281-14 9.52-30.801 10.64-56.56 6.16-77.281-4.48-20.16-14.56-35.84-27.441-48.16-13.441-12.32-30.238-21.281-48.16-26.32-29.676-8.399-61.594-8.961-87.914-2.801-16.238 3.922-32.48 16.238-45.36 33.039-10.077 13.44-17.921 30.238-22.397 47.602-4.48 16.8-5.602 34.719-1.68 51.52 3.914 18.48 14.555 36.402 32.477 49.84l-.001-.002ZM331.88 178.4c1.68 6.16-1.68 12.32-7.84 14-6.16 1.68-12.32-1.68-14-7.84-15.12-54.32 11.2-71.68 22.398-78.96l.559-.56c2.8-1.68 6.16-2.238 8.96-1.12 24.642 6.718 33.04 38.078 39.2 59.922 0 .558.558 1.68 1.68 6.16 1.68 6.16-1.68 12.32-7.84 14-6.16 1.68-12.32-1.68-14-7.84-.559-.559-.559-2.8-1.68-6.719-3.922-15.12-9.52-35.28-19.602-42.559-7.274 6.719-16.793 19.598-7.836 51.516h.001Z"/>
  <path d="M93.88 243.92c-3.922 5.04-10.641 5.602-15.68 1.68-5.04-3.922-5.602-11.2-1.68-15.68 31.36-39.2 40.88-63.281 39.762-76.72-.558-3.359-1.68-5.038-2.8-6.16-1.68-1.12-4.481-1.12-7.282 0-6.719 2.239-13.44 8.399-15.68 19.04-1.12 6.16-7.28 10.077-13.44 8.398-6.16-1.121-9.52-7.281-8.4-13.441 4.481-19.04 17.923-31.36 31.36-35.281 8.398-2.8 17.359-2.238 24.64 2.238 7.282 4.48 12.88 11.762 14 23.52 1.68 17.363-8.96 48.164-44.8 92.406Z"/>
</svg>
