<svg xmlns="http://www.w3.org/2000/svg" fill="#9ca2a7" viewBox="0 0 35 38">
  <path d="M5.445 15.764c.357.278.436.754.158 1.112-.278.357-.754.436-1.11.158-1.628-1.19-2.54-2.778-2.898-4.444-.317-1.43-.238-2.977.12-4.406.356-1.428 1.031-2.777 1.865-3.928 1.11-1.509 2.579-2.62 4.127-2.937 2.142-.476 4.682-.437 6.984.238 1.508.436 2.937 1.19 4.048 2.222a8.074 8.074 0 0 1 2.42 4.247c.274 1.203.303 2.557.06 4.088a16.825 16.825 0 0 1 1.383-.682c.163-1.877 1.313-2.633 1.892-3.01l.04-.04c.198-.118.436-.158.634-.079 1.156.315 1.808 1.396 2.242 2.539 1.144.237 2.336.95 3.354 1.866a11.1 11.1 0 0 1 2.183 2.58c.595.992.912 1.984.873 2.817-.04.516-.199.993-.556 1.39l-.04.04c-.158.198-.396.436-.635.595.51.269.634.629.767 1.01.043.125.088.252.146.378.318.675.318 1.35.08 1.985-.199.595-.636 1.15-1.191 1.587-.913.635-1.706.873-3.056.397-1.931 2.325-2.649 2.42-4.136 2.615l-.03.004a10.27 10.27 0 0 0-1.897.323c.05.99-.055 1.997-.326 2.892-.08.278-.198.595-.317.834 4.287-.63 4.598.495 5.298 3.026l.02.069c.017.089.043.17.07.253.032.103.066.21.088.342a.794.794 0 0 1-.556.992c-.079.04-.158.04-.238.04H16.16c-.318 0-4.842 0-5.16-.04-3.293-.238-5.794-1.587-7.46-3.373C1.834 31.638 1 29.376 1 27.392v-.476c.237-3.359 3.311-7.156 5.335-9.656l.023-.027c2.222-2.778 2.897-4.485 2.817-5.437-.04-.238-.119-.357-.198-.437-.12-.08-.318-.08-.516 0-.476.159-.953.595-1.111 1.35a.76.76 0 0 1-.953.595c-.436-.08-.674-.516-.595-.953.318-1.35 1.27-2.222 2.222-2.5.596-.199 1.23-.159 1.747.158.516.318.912.834.992 1.667.119 1.23-.635 3.413-3.175 6.549l-.074.092c-1.867 2.344-4.73 5.938-4.926 8.758v.357c0 1.627.714 3.492 2.103 5 1.389 1.508 3.532 2.659 6.39 2.857h15.238c-.436-1.508-.912-2.063-5.04-1.23a.69.69 0 0 1-.714-.158.774.774 0 0 1-.119-1.112c.436-.516.754-1.15.952-1.865a7.415 7.415 0 0 0 .12-3.492c-.239-1.111-.755-2.104-1.509-2.778-.357-.318-.754-.556-1.23-.675-.331-.053-.57-.063-.916-.077l-.074-.003c-.098-.004-.186-.009-.269-.014a3.355 3.355 0 0 0-.765.014c-.157.023-.397.08-.397.08l-.357.08a.793.793 0 0 1-.992-.556.793.793 0 0 1 .556-.992l.476-.12.476-.079c.476-.08 1.658-.03 1.952 0 .294.03.746.12.746.12.715.198 1.31.555 1.826.992 1.01.859 1.666 2.07 2.005 3.402.707-.179 1.262-.255 1.716-.318l.208-.029.051-.007c1.115-.153 1.643-.226 3.441-2.493a.752.752 0 0 1 .992-.199c.953.516 1.39.397 1.945 0 .278-.198.516-.516.635-.793.08-.278.08-.556-.04-.794C31.756 21.677 30.5 21 29.575 21h-1.112c-.506 0-1.039-.37-.962-.87.068-.445.512-.64.962-.635.538.005 1.111 0 1.111 0 .596 0 1.27-.12 1.826-.516.238-.159.476-.318.675-.556a.597.597 0 0 0 .158-.436c.04-.516-.198-1.191-.635-1.905-.476-.754-1.11-1.548-1.865-2.183-.569-.5-1.164-.91-1.74-1.183.018.063.043.15.073.27a.794.794 0 0 1-.556.992.794.794 0 0 1-.992-.555c-.02-.02-.03-.073-.046-.159-.015-.078-.035-.184-.073-.317-.08-.31-.17-.65-.275-.988a.844.844 0 0 1-.117-.358c-.245-.704-.562-1.356-.997-1.67-.515.476-1.19 1.389-.555 3.65a.793.793 0 0 1-.556.993.793.793 0 0 1-.992-.556 9.875 9.875 0 0 1-.196-.841c-.764.38-1.44.764-1.986 1.278-.635.635-1.151 1.468-1.508 2.817a.795.795 0 0 1-.913.635 8.872 8.872 0 0 0-4.286.278 7.695 7.695 0 0 0-3.453 2.143c-.897.971-1.02 1.274-1.329 2.035l-.06.148c-.357.873-.556 1.905-.595 3.056 0 1.11.08 2.34.397 3.73.08.436-.199.833-.635.952-.437.12-.834-.198-.953-.635-.317-1.508-.436-2.857-.397-4.087.04-1.35.318-2.54.715-3.572.396-1.032.556-1.389 1.706-2.659a9.28 9.28 0 0 1 4.088-2.619c1.468-.437 2.976-.595 4.365-.437.366-1.097.816-1.916 1.396-2.573.631-2.115.7-3.89.39-5.324-.318-1.428-1.032-2.54-1.945-3.412-.952-.874-2.143-1.509-3.413-1.866-2.103-.595-4.365-.635-6.23-.198-1.15.278-2.302 1.15-3.214 2.341-.715.953-1.27 2.143-1.588 3.374-.317 1.19-.397 2.46-.119 3.65.278 1.31 1.032 2.58 2.302 3.532Zm21.055.693a.803.803 0 1 1 1.606 0 .803.803 0 0 1-1.606 0Z" />
  <path d="m5.603 16.876.198.153-.198-.153Zm-.158-1.112.153-.197-.003-.003-.15.2Zm-.953 1.27.154-.197-.006-.005-.148.202ZM1.595 12.59l.245-.053v-.002l-.245.054Zm.12-4.406-.243-.06.242.06ZM3.58 4.256l-.202-.149-.001.002.203.147Zm4.127-2.937.05.245.004-.001-.054-.244Zm6.984.238-.07.24.07-.24Zm4.048 2.222.17-.183-.17.183Zm2.42 4.247-.243.054v.001l.244-.055Zm.06 4.088-.247-.04-.08.511.45-.253-.122-.218Zm1.37-.676.102.229.01-.005-.112-.224Zm.013-.006.107.226.13-.062.012-.142-.249-.022Zm1.892-3.01.136.21.022-.014.018-.019-.177-.177Zm.04-.04-.13-.214-.026.016-.022.022.177.177Zm.634-.079-.093.233.014.005.013.004.066-.242Zm2.242 2.539-.233.089.049.128.134.028.05-.245Zm3.354 1.866-.167.186.004.004.163-.19Zm2.183 2.58.214-.129v-.001l-.214.13Zm.873 2.817.25.02v-.008l-.25-.012Zm-.556 1.39.177.176.01-.01-.187-.166Zm-.04.04-.176-.177-.01.01-.008.01.195.156Zm-.635.595-.138-.208-.349.232.37.197.117-.221Zm.767 1.01.236-.082-.236.082Zm.146.378-.227.105v.002l.227-.107Zm.08 1.985-.235-.088-.003.009.237.079ZM32.39 25.09l.143.205.006-.004.005-.005-.154-.196Zm-3.056.397.083-.236-.164-.058-.111.134.192.16ZM25.2 28.102l-.032-.248.032.248Zm-.03.004.018.25.014-.002-.033-.248Zm-1.897.323-.063-.242-.197.052.01.203.25-.013Zm-.326 2.892-.239-.072-.001.003.24.069Zm-.317.834-.224-.112-.214.428.474-.07-.036-.246Zm5.298 3.026-.24.067.24-.067Zm.02.069.245-.049-.002-.009-.003-.009-.24.067Zm.07.253.238-.076-.239.076Zm.088.342-.247.041.003.013.003.012.241-.066Zm-.556.992-.065-.24-.024.006-.022.01.111.224Zm-16.548 0 .03-.248-.012-.001-.018.25ZM3.54 33.464l.183-.17v-.001l-.183.17ZM1 26.916l-.25-.018v.018H1Zm5.335-9.656.194.158-.194-.158Zm.023-.027.194.157v-.001l-.194-.156Zm2.817-5.437.25-.021-.001-.01-.002-.01-.247.04Zm-.198-.437.177-.177-.018-.017-.02-.014-.139.208Zm-.516 0 .079.237.007-.002.007-.003-.093-.232ZM7.35 12.71l-.245-.052-.001.007.246.044Zm-.953.595.066-.242-.01-.002-.01-.002-.046.245Zm-.595-.953-.244-.057-.002.012.246.045Zm2.222-2.5.07.24.01-.003-.08-.237Zm1.747.158.13-.213-.13.213Zm.992 1.667-.25.024.25-.024Zm-3.175 6.549-.194-.158-.002.002.196.156Zm-.074.092.196.156-.196-.156Zm-4.926 8.758-.25-.018v.018h.25Zm2.103 5.357-.184.17.184-.17Zm6.39 2.857-.018.25H11.08v-.25Zm15.238 0v.25h.333l-.093-.32-.24.07Zm-5.04-1.23-.05-.245-.014.003-.015.005.08.237Zm-.714-.158.177-.177-.011-.011-.013-.01-.153.198Zm-.119-1.112.188.165.003-.003-.191-.162Zm.952-1.865-.24-.069v.002l.24.067Zm.12-3.492.244-.05v-.003l-.245.053Zm-1.509-2.778.167-.186v-.001l-.167.187Zm-1.23-.675.06-.242-.01-.003-.01-.002-.04.247Zm-.916-.077-.01.25.01-.25Zm-.074-.003-.01.25.01-.25Zm-.269-.014.016-.25-.016.25Zm-.765.014.035.248-.035-.248Zm-.397.08.054.244h.004l-.058-.244Zm-.357.08-.054-.245-.012.003.066.241Zm-.436-1.548-.061-.243-.005.001.066.242Zm.476-.12L16 22.146l-.01.002-.01.002.06.243Zm.476-.079.04.247-.04-.247Zm2.698.12.067-.241-.009-.003-.009-.002-.049.245Zm1.826.992.162-.19v-.001l-.162.19Zm2.005 3.402-.243.061.062.242.242-.06-.061-.243Zm1.716-.318-.035-.247.035.247Zm.208-.029-.034-.248h-.001l.035.248Zm.051-.007-.034-.248.034.248Zm3.441-2.493.196.155.004-.005-.2-.15Zm.992-.199-.132.212.006.004.007.004.12-.22Zm1.945 0-.145-.203.145.203Zm.635-.793.23.098.006-.014.004-.016-.24-.068Zm-.04-.794-.227.105.004.007.223-.112ZM27.5 20.13l.247.037-.247-.037Zm.962-.635-.002.25.002-.25Zm1.111 0v-.25h-.002l.002.25Zm1.826-.516-.139-.208-.006.004.145.204Zm.675-.556-.177-.177-.008.008-.007.009.192.16Zm.158-.436-.249-.02v.02h.25Zm-.635-1.905.214-.13-.002-.004-.212.134Zm-1.865-2.183-.165.188.004.003.161-.191Zm-1.74-1.183.107-.226-.507-.24.16.537.24-.071Zm.073.27-.242.061v.005l.242-.066Zm-1.548.437.242-.066-.018-.064-.047-.047-.177.177Zm-.046-.159-.246.046.246-.046Zm-.073-.317-.242.063.002.005.24-.068Zm-.275-.988.239-.074-.01-.029-.015-.026-.214.13Zm-.117-.358.248-.024-.002-.03-.01-.028-.236.082Zm-.997-1.67.147-.203-.166-.12-.15.14.17.183Zm-.555 3.65.241-.065v-.002l-.241.068Zm-1.548.437.242-.066v-.001l-.242.067Zm-.196-.841.245-.046-.06-.326-.297.148.112.224Zm-1.986 1.278-.172-.182-.005.005.177.177Zm-1.508 2.817-.242-.064-.003.01-.001.01.246.044Zm-.913.635.049-.245h-.004l-.045.245Zm-4.286.278.072.24.005-.002-.077-.238Zm-3.453 2.143-.184-.17.184.17Zm-1.329 2.035.232.094-.232-.094Zm-.06.148.231.095-.231-.095Zm-.595 3.056-.25-.009v.009h.25Zm.397 3.73.246-.045-.002-.011-.244.056Zm-.635.952-.066-.24.066.24Zm-.953-.635-.244.052.001.007.002.007.241-.066Zm-.397-4.087.25.008-.25-.008Zm.715-3.572.233.09-.233-.09Zm5.794-5.278-.071-.24-.004.002.075.238Zm4.365-.437-.028.249.201.023.064-.193-.237-.079Zm1.396-2.573.187.165.037-.04.015-.054-.24-.071Zm.39-5.324.244-.052v-.002l-.244.054Zm-1.945-3.412.173-.181-.004-.004-.169.184Zm-3.413-1.866-.068.24v.001l.068-.24Zm-6.23-.198-.057-.244h-.002l.06.244ZM4.85 5.208l-.199-.152-.001.002.2.15ZM3.262 8.582l.242.064v-.002l-.242-.062Zm-.119 3.65.245-.051-.001-.005-.244.056Zm12.898 10.16L16 22.145l-.01.002-.01.002.06.243ZM5.8 17.029c.37-.475.254-1.106-.203-1.462l-.307.395c.258.2.301.52.115.76l.395.307Zm-1.462.202c.475.37 1.106.255 1.462-.202l-.395-.307c-.2.258-.521.3-.76.115l-.307.394Zm-2.988-4.59c.369 1.723 1.314 3.366 2.994 4.595l.295-.404c-1.574-1.152-2.455-2.684-2.8-4.295l-.49.105Zm.12-4.517c-.364 1.46-.447 3.047-.12 4.52l.488-.109c-.307-1.384-.232-2.892.118-4.29l-.485-.121Zm1.906-4.015c-.85 1.173-1.54 2.551-1.905 4.015l.485.121c.348-1.394 1.008-2.714 1.825-3.843l-.405-.293Zm4.28-3.035c-1.627.334-3.144 1.493-4.279 3.033l.403.297c1.087-1.476 2.507-2.539 3.976-2.84l-.1-.49Zm7.104.243C12.418.63 9.835.59 7.652 1.075l.109.488c2.103-.467 4.6-.429 6.86.234l.14-.48Zm4.148 2.279c-1.144-1.062-2.609-1.834-4.148-2.28l-.14.481c1.477.427 2.87 1.164 3.948 2.165l.34-.366Zm2.495 4.376a8.323 8.323 0 0 0-2.495-4.376l-.34.366a7.824 7.824 0 0 1 2.347 4.118l.488-.108Zm.062 4.181c.247-1.556.22-2.943-.062-4.183l-.488.111c.265 1.167.295 2.489.056 3.994l.494.078Zm-.124.179c.419-.236.867-.45 1.35-.666l-.205-.456c-.488.219-.952.44-1.39.686l.245.436Zm1.359-.67.008-.004-.214-.452a1.391 1.391 0 0 0-.018.009l.224.447Zm1.656-3.45c-.594.387-1.83 1.201-2.004 3.198l.498.044c.153-1.756 1.215-2.456 1.779-2.822l-.273-.42Zm0-.006-.04.04.354.353.04-.04-.355-.353Zm.904-.135c-.29-.115-.61-.05-.857.097l.258.43c.15-.09.306-.106.413-.062l.186-.465Zm2.383 2.682c-.439-1.154-1.129-2.342-2.41-2.69l-.132.482c1.03.28 1.644 1.253 2.075 2.386l.467-.178Zm-.284.334c1.085.225 2.238.908 3.237 1.807l.334-.372c-1.038-.934-2.269-1.676-3.47-1.925l-.101.49Zm3.24 1.81a10.85 10.85 0 0 1 2.133 2.52l.427-.26a11.35 11.35 0 0 0-2.232-2.638l-.327.379Zm2.132 2.52c.581.967.875 1.91.838 2.677l.5.023c.042-.9-.3-1.942-.909-2.958l-.429.257Zm.839 2.67c-.037.475-.18.894-.493 1.24l.372.335c.403-.448.576-.98.62-1.537l-.5-.039Zm-.484 1.23-.04.04.355.354.04-.04-.355-.353Zm-.057.06a2.815 2.815 0 0 1-.58.545l.278.415c.265-.176.521-.434.692-.646l-.39-.313Zm-.558.974c.218.115.344.243.432.378.092.142.148.298.216.493l.472-.164c-.065-.186-.138-.4-.269-.602a1.598 1.598 0 0 0-.617-.547l-.234.442Zm.648.871c.043.123.09.262.155.401l.454-.21a3.895 3.895 0 0 1-.137-.355l-.472.164Zm.156.403c.287.61.287 1.214.071 1.79l.469.175c.26-.694.26-1.439-.088-2.178l-.452.213Zm.068 1.799c-.179.537-.58 1.055-1.108 1.47l.31.393c.583-.459 1.055-1.052 1.273-1.705l-.475-.158Zm-1.096 1.46c-.441.308-.832.504-1.262.574-.428.071-.92.022-1.568-.207l-.166.472c.702.247 1.281.317 1.816.229.532-.088.994-.329 1.466-.657l-.286-.41Zm-3.105.443c-.96 1.157-1.6 1.732-2.164 2.048-.56.312-1.064.38-1.812.48l.065.495c.739-.097 1.336-.174 1.99-.539.649-.362 1.335-.996 2.305-2.164l-.384-.32Zm-3.976 2.527-.032.004.066.496.031-.004-.065-.496Zm-.018.003c-.502.038-1.115.114-1.94.33l.126.484c.791-.207 1.374-.279 1.852-.316l-.038-.498Zm-1.963 3.537c.28-.927.387-1.962.336-2.977l-.5.025c.049.966-.053 1.943-.315 2.807l.479.145Zm-.334.872c.128-.254.252-.586.335-.876l-.481-.138c-.076.266-.19.569-.3.79l.446.224Zm5.316 2.849c-.173-.628-.329-1.191-.532-1.662-.204-.475-.466-.876-.864-1.171-.791-.586-2.038-.69-4.18-.375l.073.495c2.145-.315 3.198-.17 3.81.282.302.224.518.54.702.967.187.432.333.959.51 1.597l.481-.133Zm.02.068-.02-.069-.482.134.02.069.481-.134Zm.067.244a2.11 2.11 0 0 1-.063-.226l-.49.098c.02.104.05.198.076.28l.477-.152Zm.097.377c-.026-.151-.065-.274-.098-.377l-.476.151c.033.104.062.196.08.308l.494-.082Zm-.737 1.274c.576-.156.885-.734.731-1.299l-.482.132a.544.544 0 0 1-.38.685l.131.483Zm-.304.049c.074 0 .21.003.35-.066l-.223-.447c-.02.01-.04.013-.127.013v.5Zm-11.151 0H27.31v-.5H16.16v.5Zm-5.19-.042c.097.012.46.02.923.025.475.006 1.08.01 1.686.012 1.211.005 2.422.005 2.58.005v-.5c-.158 0-1.368 0-2.578-.005-.605-.003-1.21-.006-1.682-.012a17.906 17.906 0 0 1-.867-.021l-.062.496Zm-7.613-3.45c1.71 1.832 4.27 3.209 7.626 3.451l.036-.498c-3.233-.234-5.674-1.556-7.296-3.295l-.366.341ZM.75 27.391c0 2.05.86 4.373 2.607 6.242l.365-.341C2.057 31.511 1.25 29.31 1.25 27.392h-.5Zm0-.476v.476h.5v-.476h-.5Zm5.39-9.813c-1.01 1.248-2.294 2.834-3.355 4.53C1.728 23.327.874 25.158.751 26.899l.498.035c.115-1.617.916-3.364 1.96-5.035 1.042-1.666 2.307-3.229 3.32-4.48l-.388-.315Zm.023-.028-.022.028.388.315.023-.028-.389-.315Zm2.763-5.259c.034.412-.093 1.028-.521 1.904-.426.87-1.138 1.976-2.243 3.356l.39.313c1.119-1.398 1.855-2.535 2.302-3.45.445-.91.616-1.623.57-2.164l-.498.041Zm-.126-.28c.04.04.097.11.129.3l.493-.081c-.047-.286-.15-.454-.268-.573l-.354.354Zm-.246.055c.162-.064.263-.038.284-.024l.278-.416c-.217-.144-.513-.118-.748-.024l.186.464Zm-.96 1.169c.141-.668.555-1.033.946-1.164l-.158-.474c-.561.187-1.1.694-1.277 1.535l.49.103Zm-1.262.785a1.01 1.01 0 0 0 1.264-.792l-.492-.09a.51.51 0 0 1-.641.4l-.131.482Zm-.776-1.239c-.098.542.195 1.134.797 1.244l.09-.492c-.272-.05-.455-.33-.395-.662l-.492-.09Zm2.398-2.695c-1.04.303-2.057 1.247-2.395 2.683l.486.114c.298-1.263 1.185-2.065 2.05-2.317l-.14-.48Zm1.947.185c-.588-.361-1.302-.4-1.956-.182l.158.474c.537-.179 1.093-.138 1.537.134l.261-.426Zm1.11 1.857c-.087-.915-.53-1.5-1.11-1.857l-.261.426c.452.279.802.726.874 1.478l.498-.047Zm-3.229 6.729c1.28-1.58 2.116-2.927 2.618-4.043.501-1.113.677-2.012.611-2.687l-.497.048c.054.556-.088 1.364-.57 2.434-.48 1.066-1.29 2.377-2.55 3.933l.388.315Zm-.072.09.073-.092-.39-.311-.074.092.39.312Zm-4.873 8.62c.093-1.345.829-2.904 1.798-4.441.966-1.53 2.14-3.005 3.075-4.178l-.391-.312c-.933 1.17-2.124 2.665-3.107 4.223-.978 1.55-1.771 3.198-1.874 4.673l.499.035Zm0 .34v-.357h-.5v.357h.5Zm2.038 4.83c-1.351-1.466-2.037-3.272-2.037-4.83h-.5c0 1.696.742 3.62 2.169 5.17l.368-.34Zm6.223 2.778c-2.797-.194-4.88-1.319-6.223-2.777l-.368.338c1.435 1.558 3.638 2.735 6.556 2.938l.034-.5Zm15.221 0H11.08v.5h15.24v-.5Zm-4.99-.736c1.027-.207 1.818-.326 2.434-.367.618-.04 1.042 0 1.343.097.292.094.476.245.615.45.147.216.25.5.358.875l.48-.14c-.11-.378-.23-.73-.424-1.016a1.608 1.608 0 0 0-.875-.645c-.388-.125-.884-.162-1.53-.12-.648.043-1.464.167-2.5.376l.099.49Zm-.94-.227a.94.94 0 0 0 .97.22l-.159-.475a.44.44 0 0 1-.458-.098l-.354.353Zm-.131-1.452a1.024 1.024 0 0 0 .154 1.473l.306-.395a.524.524 0 0 1-.084-.749l-.376-.33Zm.9-1.768c-.19.686-.493 1.287-.903 1.77l.382.324c.463-.548.796-1.216 1.002-1.96l-.482-.134Zm.115-3.374a7.166 7.166 0 0 1-.115 3.372l.48.138a7.666 7.666 0 0 0 .124-3.612l-.49.102Zm-1.43-2.643c.706.632 1.2 1.573 1.43 2.644l.489-.105c-.247-1.15-.784-2.194-1.586-2.911l-.333.372Zm-1.125-.618c.43.107.791.322 1.125.619l.332-.374c-.38-.338-.812-.6-1.335-.73l-.122.485Zm-.865-.07c.346.014.571.024.886.074l.08-.494c-.348-.055-.6-.065-.946-.08l-.02.5Zm-.074-.003.074.003.02-.5-.074-.002-.02.5Zm-.274-.015c.082.006.173.011.274.015l.02-.5c-.095-.003-.18-.009-.263-.014l-.031.5Zm-.715.013c.276-.04.46-.028.715-.013l.03-.499c-.258-.016-.486-.03-.816.017l.071.495Zm-.432-.168.058.243h.002a3.944 3.944 0 0 1 .372-.075l-.07-.495a4.313 4.313 0 0 0-.408.08l-.009.003h-.002l.057.244Zm-.303.323.357-.08-.108-.487-.357.08.108.487Zm-1.287-.733c.157.575.735.884 1.299.73l-.132-.482a.544.544 0 0 1-.685-.38l-.482.131Zm.73-1.3a1.043 1.043 0 0 0-.73 1.3l.482-.132a.544.544 0 0 1 .38-.685l-.131-.483Zm.482-.12-.476.12.121.484.476-.119-.12-.485Zm.496-.083-.476.079.082.493.476-.08-.082-.492Zm2.018-.003a13.653 13.653 0 0 0-.929-.042c-.39-.006-.826 0-1.09.045l.083.493c.212-.036.605-.044 1-.038.388.006.749.026.886.04l.05-.498Zm.721.369.05-.246h-.007a8.723 8.723 0 0 0-.263-.048 7.674 7.674 0 0 0-.501-.075l-.05.498a7.215 7.215 0 0 1 .65.102l.054.01.014.003h.004s.001 0 0 0l.05-.244Zm1.988.8c-.538-.454-1.165-.831-1.92-1.041l-.134.481c.672.187 1.236.524 1.73.942l.324-.381Zm2.085 3.532c-.348-1.37-1.028-2.63-2.085-3.53l-.324.38c.961.819 1.596 1.98 1.924 3.273l.485-.123Zm-.181.304c.693-.175 1.236-.25 1.689-.312l-.069-.495c-.455.062-1.02.14-1.742.322l.122.485Zm1.689-.312.21-.03-.071-.494-.208.029.069.495Zm.208-.03.051-.006-.068-.496-.051.007.068.496Zm.051-.006c.558-.077 1.019-.138 1.566-.492.533-.345 1.136-.958 2.037-2.094l-.392-.31c-.897 1.13-1.457 1.687-1.916 1.984-.445.288-.805.34-1.363.416l.068.496Zm3.607-2.591a.502.502 0 0 1 .66-.137l.265-.424a1.002 1.002 0 0 0-1.325.26l.4.3Zm.673-.129c.493.267.889.39 1.253.372.37-.018.665-.18.956-.388l-.29-.407c-.264.189-.465.284-.69.296-.232.011-.531-.064-.99-.313l-.239.44Zm2.21-.016c.318-.228.583-.583.719-.899l-.46-.197c-.102.24-.313.52-.55.689l.29.407Zm.73-.929c.09-.317.098-.663-.057-.974l-.447.224c.083.165.09.375.023.613l.48.137Zm-.053-.967c-.083-.178-.24-.346-.417-.492a3.63 3.63 0 0 0-.65-.416c-.48-.244-1.066-.43-1.582-.43v.5c.411 0 .918.153 1.356.376.217.11.41.234.559.356.153.126.243.237.28.316l.453-.21Zm-2.649-1.338h-1.11v.5h1.11v-.5Zm-1.11 0a.873.873 0 0 1-.541-.19c-.137-.113-.197-.25-.175-.393l-.494-.075c-.055.358.113.657.35.853.233.194.55.305.86.305v-.5Zm-.716-.583a.42.42 0 0 1 .218-.308.972.972 0 0 1 .495-.115l.005-.5a1.466 1.466 0 0 0-.754.184.918.918 0 0 0-.458.664l.494.075Zm.713-.423a57.604 57.604 0 0 0 1.09 0h.025l-.002-.25-.002-.25H29.545l-.071.001a70.503 70.503 0 0 1-1.01 0l-.004.5Zm1.113 0c.624 0 1.358-.123 1.971-.562l-.29-.407c-.498.356-1.114.47-1.68.47v.5Zm1.965-.557c.235-.157.503-.334.728-.604l-.384-.32c-.172.206-.38.347-.622.508l.278.416Zm.713-.587a.845.845 0 0 0 .231-.613h-.5c0 .12-.03.204-.085.26l.354.353Zm.23-.594c.046-.596-.225-1.326-.67-2.055l-.427.261c.428.7.633 1.319.6 1.756l.498.038Zm-.672-2.058c-.487-.77-1.138-1.585-1.916-2.24l-.322.382c.73.615 1.349 1.387 1.815 2.125l.423-.267Zm-1.912-2.237c-.582-.512-1.196-.936-1.798-1.221l-.215.452c.551.26 1.127.655 1.683 1.145l.33-.376Zm-1.59-.785a6.503 6.503 0 0 0-.076-.281l-.48.142c.019.06.042.143.072.26l.485-.121Zm-.732 1.294c.576-.157.885-.735.731-1.3l-.482.132a.544.544 0 0 1-.38.685l.131.483Zm-1.299-.731c.157.575.735.884 1.3.73l-.132-.482a.544.544 0 0 1-.685-.38l-.483.132Zm-.05-.179c.007.04.015.085.025.122.007.027.028.106.09.168l.353-.354a.194.194 0 0 1 .04.057.613.613 0 0 1-.017-.085l-.492.092Zm-.068-.295c.035.122.053.218.067.295l.492-.091c-.015-.08-.037-.196-.078-.341l-.481.137Zm-.274-.982c.103.333.192.668.272.976l.484-.125a22.09 22.09 0 0 0-.278-.999l-.478.148Zm.453-.203a.595.595 0 0 1-.083-.253l-.497.047c.015.168.068.326.152.465l.428-.26Zm-1.474-1.697c.177.128.343.335.498.61.154.272.289.595.408.94l.473-.164a6.294 6.294 0 0 0-.446-1.023c-.173-.306-.382-.582-.64-.768l-.293.405Zm-.168 3.38c-.31-1.1-.292-1.847-.153-2.361.137-.511.401-.82.637-1.038l-.34-.367c-.28.258-.61.644-.78 1.274-.169.626-.171 1.467.154 2.628l.482-.135Zm-.73 1.302c.574-.157.884-.735.73-1.3l-.482.132a.544.544 0 0 1-.38.685l.131.483Zm-1.3-.731c.157.575.735.885 1.3.73l-.132-.482a.544.544 0 0 1-.685-.38l-.483.132Zm-.201-.862c.05.274.117.56.201.863l.482-.134a9.697 9.697 0 0 1-.192-.82l-.491.091Zm.134-.27c-.768.383-1.471.78-2.046 1.32l.343.365c.518-.488 1.166-.858 1.926-1.237l-.223-.447Zm-2.051 1.326c-.67.67-1.206 1.544-1.573 2.93l.483.128c.348-1.312.843-2.105 1.444-2.705l-.354-.353Zm-1.577 2.95a.545.545 0 0 1-.618.434l-.098.49a1.045 1.045 0 0 0 1.208-.835l-.492-.09Zm-.622.433a9.121 9.121 0 0 0-4.408.287l.154.475a8.622 8.622 0 0 1 4.164-.27l.09-.491Zm-4.403.285a7.945 7.945 0 0 0-3.565 2.212l.368.34a7.445 7.445 0 0 1 3.341-2.073l-.145-.479Zm-3.565 2.212c-.452.49-.72.822-.913 1.135-.195.313-.31.598-.464.976l.464.188c.155-.383.256-.63.425-.9.169-.273.411-.578.856-1.06l-.368-.339Zm-1.377 2.11-.06.148.463.19.06-.149-.463-.188Zm-.06.148c-.37.906-.573 1.968-.613 3.142l.5.017c.038-1.128.233-2.13.576-2.97l-.463-.189Zm-.613 3.15c0 1.124.08 2.374.403 3.787l.488-.112c-.313-1.366-.391-2.576-.391-3.674h-.5Zm.4 3.776c.055.294-.128.577-.454.666l.132.483c.547-.15.92-.66.815-1.239l-.492.09Zm-.454.666c-.262.072-.55-.11-.646-.46l-.482.132c.143.524.649.977 1.26.81l-.132-.482Zm-.642-.445c-.314-1.491-.43-2.82-.392-4.028l-.5-.016c-.04 1.252.082 2.621.403 4.147l.489-.103Zm-.392-4.029c.039-1.319.31-2.481.698-3.49l-.467-.179a11.025 11.025 0 0 0-.73 3.654l.5.015Zm.698-3.49c.199-.516.33-.843.55-1.197.22-.357.535-.75 1.109-1.383l-.371-.336c-.577.638-.918 1.058-1.163 1.456-.247.399-.394.766-.592 1.281l.467.18Zm1.659-2.58a9.03 9.03 0 0 1 3.977-2.549l-.15-.476a9.531 9.531 0 0 0-4.198 2.69l.37.335Zm3.973-2.547c1.44-.429 2.915-.583 4.266-.428l.057-.497c-1.427-.163-2.97 0-4.465.445l.142.48Zm4.532-.598c.358-1.074.793-1.86 1.345-2.487l-.375-.33c-.607.687-1.071 1.538-1.445 2.66l.474.157Zm1.303-7.923c.3 1.385.237 3.116-.385 5.2l.48.142c.64-2.146.715-3.964.394-5.447l-.489.105Zm-1.873-3.285c.882.844 1.568 1.912 1.874 3.287l.488-.109c-.33-1.483-1.072-2.636-2.016-3.54l-.346.362Zm-3.307-1.805c1.235.347 2.39.965 3.311 1.809l.338-.369c-.984-.902-2.21-1.555-3.514-1.921l-.136.481ZM8.12 3.11c1.822-.426 4.041-.388 6.105.196l.136-.481c-2.142-.607-4.447-.648-6.355-.202l.114.487ZM5.048 5.36c.891-1.163 1.998-1.99 3.075-2.25l-.118-.486c-1.224.296-2.42 1.214-3.354 2.432l.397.304ZM3.504 8.644c.31-1.202.853-2.362 1.546-3.286l-.4-.3C3.914 6.04 3.345 7.26 3.02 8.52l.484.125Zm-.117 3.532c-.267-1.143-.192-2.37.117-3.53l-.483-.129c-.326 1.222-.41 2.534-.121 3.772l.487-.113Zm2.208 3.388c-1.221-.915-1.942-2.132-2.207-3.383l-.49.103c.29 1.369 1.078 2.691 2.397 3.68l.3-.4Zm21.708-.16c-.581 0-1.053.471-1.053 1.053h.5c0-.305.248-.553.553-.553v-.5Zm1.053 1.053c0-.582-.471-1.053-1.053-1.053v.5c.306 0 .553.248.553.553h.5Zm-1.053 1.053c.582 0 1.053-.471 1.053-1.053h-.5a.553.553 0 0 1-.553.553v.5Zm-1.053-1.053c0 .582.472 1.053 1.053 1.053v-.5a.553.553 0 0 1-.553-.553h-.5Zm-10.625 6.296.476-.119-.12-.485-.477.12.121.484Zm.457-.115.476-.08-.082-.492-.476.079.082.493Zm-9.553-5.22.023-.028-.389-.315-.022.028.388.315Z" />
</svg>
