<svg xmlns="http://www.w3.org/2000/svg" fill="#9ca2a7" viewBox="0 0 59 64">
  <path d="m19.875.148.828.094c3.187.389 4.978.932 7.47 2.334 2.59 1.457 4.117 2.829 5.744 5.203 1.485 2.167 2.082 3.804 2.497 6.628.165 1.126.123 2.396-.086 3.795-.059.392-.13.79-.213 1.194a16.647 16.647 0 0 1 1.752-.76 4.9 4.9 0 0 1 .091-.554c.073-.36.175-.711.303-1.05l.153-.408c.746-1.983 1.5-2.967 3.287-3.282 1.587-.28 2.682.285 3.833 1.533l.68.782.096.114c.184.223.316.412.51.714.266.414.477.881.644 1.398 2.413.582 4.017 1.45 5.96 3.189a13.95 13.95 0 0 1 1.655 1.735c.175.22.343.444.517.692l.338.493.728 1.103c1.4 2.099 1.876 3.585 1.487 5.671-.227 1.22-.572 2.007-1.319 2.951a4.914 4.914 0 0 1-.803.792c.225.207.424.425.594.658 1.313 1.796 1.695 3.57.954 5.521-.708 1.866-2.718 3.194-4.465 3.516-.578.106-1.204.067-1.924-.067-.218-.041-.44-.09-.67-.147l-.318-.083-.222.294c-.19.246-.387.49-.59.728l-.308.354c-.575.642-1.146 1.184-1.72 1.598-1.044.756-2.37 1.268-3.916 1.601-1.231.265-2.48.398-3.634.44.15 1.764-.083 3.245-.738 5.278-.082.256-.185.528-.305.817l-.079.18.307-.048c2.472-.36 4.776-.159 6.466 1.028l.217.16.153.135c1.016 1.013 1.614 2.476 2.176 5.009.246 1.088-.282 2.416-1.698 2.513L46.14 64H17.604l-.117-.017c-5.24-.748-8.647-1.948-11.774-4.88C1.677 55.317 0 51.763 0 46.526c0-1.915.671-4.107 1.88-6.56.764-1.55 1.73-3.172 2.85-4.839 1-1.486 2.07-2.925 3.138-4.266l.436-.541c.211-.26.412-.502.6-.725l.358-.42.06-.07c3.686-4.094 5.505-7.43 5.505-9.02l-.002-.341c-.015-.82-.1-.946-.45-1.09-.59-.24-1.13-.038-1.81.768-.11.131-.26.38-.417.698a9.95 9.95 0 0 0-.256.564l-.12.294a9.723 9.723 0 0 0-.14.378 1.66 1.66 0 1 1-3.143-1.062 13.87 13.87 0 0 1 .684-1.645c.266-.537.542-.993.854-1.364 1.526-1.811 3.511-2.558 5.606-1.701 1.939.795 2.513 2.175 2.513 4.5 0 2.546-2.068 6.4-6.042 10.889l-.383.432c-.068.078-.161.188-.278.326l-.37.445a62.83 62.83 0 0 0-3.589 4.804c-1.044 1.551-1.935 3.05-2.627 4.454-1.004 2.037-1.538 3.781-1.538 5.092 0 4.278 1.271 6.974 4.664 10.157 2.433 2.28 5.166 3.289 9.531 3.95l.331.048h26.533l-.038-.128c-.24-.774-.477-1.274-.728-1.59l-.056-.066-.045-.031c-1.198-.778-3.832-.617-6.275.05l-.27.076c-.807.234-1.418.268-2.06-.143a1.795 1.795 0 0 1-.832-1.515c-.002-.33.074-.607.196-.873.064-.14.138-.268.221-.393l.074-.106.068-.091.176-.315c.181-.33.362-.677.53-1.02l.181-.384.083-.184a8.29 8.29 0 0 0 .308-.785c.668-2.07.772-3.216.439-5.14-.66-3.812-1.353-5.267-3.286-6.2-1.045-.505-1.703-.69-2.935-.836a8.822 8.822 0 0 0-1.28-.033c-.525.018-1.096.064-1.678.13-.269.032-.521.065-.75.098l-.273.041a1.66 1.66 0 1 1-.542-3.274l.342-.052.55-.074.295-.035c.663-.076 1.32-.13 1.944-.151.66-.022 1.256-.007 1.781.055 1.588.187 2.602.473 3.988 1.141 2.745 1.326 3.94 3.215 4.747 6.763a18.247 18.247 0 0 0 3.49-.378c1.135-.244 2.053-.6 2.671-1.046.354-.256.762-.643 1.191-1.122a17.1 17.1 0 0 0 .984-1.213l.235-.324.207-.297c.108-.144.251-.291.445-.432a2.067 2.067 0 0 1 1.843-.316l.67.195.047.013c.279.076.53.136.76.178.355.067.62.083.714.066.708-.13 1.724-.802 1.962-1.429.304-.8.168-1.431-.53-2.386-.102-.139-.344-.348-.677-.57a7.668 7.668 0 0 0-.514-.311l-.318-.169-4.317.001a1.66 1.66 0 0 1-.136-3.313l.136-.005h4.363l.116-.053c.302-.138.603-.294.876-.459.367-.222.638-.437.757-.588.401-.508.527-.795.658-1.5.192-1.025.003-1.7-.839-3l-1.013-1.531c-.2-.292-.373-.53-.551-.754a10.646 10.646 0 0 0-1.272-1.329c-1.14-1.018-2.051-1.62-3.216-2.048.006.306.004.602-.005.885l-.009.205a1.66 1.66 0 0 1-3.315-.052l.007-.257a12.762 12.762 0 0 0-.164-2.527c-.115-.653-.285-1.167-.482-1.473l-.129-.197c-.055-.08-.1-.14-.158-.21l-.535-.623-.203-.225c-.367-.39-.512-.45-.725-.412-.221.039-.342.153-.583.738l-.33.859a3.575 3.575 0 0 0-.161.569c-.064.284-.068.694-.004 1.192.066.516.198 1.089.378 1.68.097.319.202.622.305.897l.128.322a1.66 1.66 0 1 1-3.05 1.31 15.74 15.74 0 0 1-.558-1.564 16.77 16.77 0 0 1-.159-.555c-1.43.624-2.38 1.352-3.46 2.58-.296.337-.504.66-.684 1.042a8.41 8.41 0 0 0-.298.735l-.062.173c-.49 1.368-.712 1.89-1.268 2.78a2.312 2.312 0 0 1-.991.893l-.311.147c-.361.214-.539.26-.992.269l-.433.001-1.636-.036a26.46 26.46 0 0 0-2.507.055c-.877.066-1.622.187-2.208.366-2.883.876-4.321 1.734-6.187 3.741-1.498 1.614-2.134 2.694-2.855 4.838l-.141.433c-.48 1.538-.555 2.564-.514 5.188.007.456.051 1.015.127 1.652.058.487.133 1.007.221 1.544.053.32.107.632.163.934l.194.986a1.66 1.66 0 1 1-3.245.696l-.123-.606c-.09-.463-.18-.96-.264-1.473a39.07 39.07 0 0 1-.241-1.69c-.088-.739-.14-1.406-.15-1.99l-.009-.764c-.016-2.667.148-3.923.837-5.97.87-2.583 1.747-4.074 3.569-6.036 2.282-2.456 4.23-3.617 7.651-4.658.85-.26 1.825-.417 2.927-.5.989-.074 1.904-.085 3.149-.058l1.202.03h.103l.005-.008c.214-.367.36-.688.568-1.242l.383-1.045c.114-.305.213-.542.334-.799l.119-.242.053-.141.059-.143c.047-.115.108-.27.18-.46l.056-.148c.23-.61.46-1.28.675-1.982.366-1.197.646-2.363.807-3.44.165-1.1.197-2.06.085-2.821-.345-2.347-.769-3.508-1.952-5.234-1.333-1.946-2.477-2.974-4.632-4.187-2.258-1.269-3.716-1.666-7.024-2.02-3.105-.332-5.868-.017-7.791.851-2.215.999-3.331 1.999-5.01 4.384-1.62 2.305-2.259 3.763-2.686 6.245-.479 2.784-.397 4.28.423 6.577.816 2.29 1.677 3.456 3.628 4.909a1.66 1.66 0 0 1-1.982 2.661c-2.477-1.844-3.736-3.548-4.772-6.456C.309 19.75.195 17.682.765 14.366c.515-2.993 1.352-4.902 3.244-7.592 1.998-2.84 3.554-4.236 6.358-5.5C12.882.14 16.224-.24 19.875.148ZM48.364 25.59a1.66 1.66 0 0 1 .136 3.314l-.136.005h-.246a1.66 1.66 0 0 1-.136-3.313l.136-.006h.246Z"/>
</svg>
