<?xml version="1.0" encoding="UTF-8" standalone="no"?>
<svg width="14px" height="26px" viewBox="0 0 14 26" version="1.1" xmlns="http://www.w3.org/2000/svg" xmlns:xlink="http://www.w3.org/1999/xlink">
    <!-- Generator: Sketch 39.1 (31720) - http://www.bohemiancoding.com/sketch -->
    <title>Page 1</title>
    <desc>Created with Sketch.</desc>
    <defs>
        <polygon id="path-1" points="6.890525 25.1006 0 25.1006 0 -0.00015 13.78105 -0.00015 13.78105 25.1006 6.890525 25.1006"></polygon>
    </defs>
    <g id="Page-1" stroke="none" stroke-width="1" fill="none" fill-rule="evenodd">
        <g id="Frontpage" transform="translate(-1140.000000, -183.000000)">
            <g id="Page-1" transform="translate(1140.000000, 183.000000)">
                <mask id="mask-2" fill="white">
                    <use xlink:href="#path-1"></use>
                </mask>
                <g id="Clip-2"></g>
                <path d="M12.5503,25.1006 C12.2353,25.1006 11.9203,24.9806 11.6803,24.7396 L0.3603,13.4206 C-0.1207,12.9406 -0.1207,12.1606 0.3603,11.6796 L11.6803,0.3606 C12.1603,-0.1204 12.9403,-0.1204 13.4203,0.3606 C13.9013,0.8416 13.9013,1.6206 13.4203,2.1016 L2.9723,12.5506 L13.4203,22.9986 C13.9013,23.4796 13.9013,24.2596 13.4203,24.7396 C13.1803,24.9806 12.8653,25.1006 12.5503,25.1006" id="Fill-1" fill="#828282" mask="url(#mask-2)"></path>
            </g>
        </g>
    </g>
</svg>