<svg version="1.1" id="Layer_1" xmlns="http://www.w3.org/2000/svg" xmlns:xlink="http://www.w3.org/1999/xlink" x="0" y="0" viewBox="0 0 24 24" xml:space="preserve" enable-background="new 0 0 24 24"><path d="M10.5,19C5.8,19,2,15.2,2,10.5S5.8,2,10.5,2c4.7,0,8.5,3.8,8.5,8.5S15.2,19,10.5,19z M10.5,4C6.9,4,4,6.9,4,10.5	c0,3.6,2.9,6.5,6.5,6.5s6.5-2.9,6.5-6.5C17,6.9,14.1,4,10.5,4z"/><path d="M21,22c-0.3,0-0.5-0.1-0.7-0.3l-5.2-5.2c-0.4-0.4-0.4-1,0-1.4s1-0.4,1.4,0l5.2,5.2c0.4,0.4,0.4,1,0,1.4	C21.5,21.9,21.3,22,21,22z"/></svg>