<svg version="1.1" id="Layer_1" xmlns="http://www.w3.org/2000/svg" xmlns:xlink="http://www.w3.org/1999/xlink" x="0" y="0" viewBox="0 0 24 24" xml:space="preserve" enable-background="new 0 0 24 24"><path d="M12,22.2c-0.8,0-1.6-0.3-2.1-0.9l-8.6-8.6C1.1,12.5,1,12.3,1,12V2c0-0.6,0.4-1,1-1h10c0.3,0,0.5,0.1,0.7,0.3l8.6,8.6	c1.2,1.2,1.2,3.1,0,4.2c0,0,0,0,0,0l-7.2,7.2C13.6,21.9,12.8,22.2,12,22.2C12,22.2,12,22.2,12,22.2z M3,11.6l8.3,8.3	c0.2,0.2,0.4,0.3,0.7,0.3c0,0,0,0,0,0c0.3,0,0.5-0.1,0.7-0.3l7.2-7.2c0.4-0.4,0.4-1,0-1.4L11.6,3H3V11.6z M20.6,13.4L20.6,13.4	L20.6,13.4z"/><path d="M7,8C6.7,8,6.5,7.9,6.3,7.7C6.1,7.5,6,7.3,6,7c0-0.1,0-0.1,0-0.2c0-0.1,0-0.1,0.1-0.2c0-0.1,0.1-0.1,0.1-0.2	c0,0,0.1-0.1,0.1-0.1c0.1-0.1,0.2-0.2,0.3-0.2C6.8,6,7,6,7.2,6c0.1,0,0.1,0,0.2,0.1c0.1,0,0.1,0,0.2,0.1c0,0,0.1,0.1,0.1,0.1	c0,0,0.1,0.1,0.1,0.1c0,0.1,0.1,0.1,0.1,0.2c0,0.1,0,0.1,0.1,0.2C8,6.9,8,6.9,8,7c0,0.1,0,0.3-0.1,0.4C7.9,7.5,7.8,7.6,7.7,7.7	c-0.1,0-0.1,0.1-0.1,0.1c-0.1,0-0.1,0.1-0.2,0.1C7.3,8,7.3,8,7.2,8C7.1,8,7.1,8,7,8z"/></svg>